# Blender 4.0.2
# www.blender.org
mtllib colomn1.mtl
o Column
v 4.791017 9.094532 2.938219
v 4.770921 9.094531 2.863219
v 4.716017 9.094531 2.808315
v 4.641017 9.094531 2.788218
v 4.566017 9.094531 2.808315
v 4.511113 9.094531 2.863219
v 4.491017 9.094532 2.938219
v 4.511113 9.094532 3.013219
v 4.566017 9.094532 3.068122
v 4.641017 9.094532 3.088219
v 4.716017 9.094532 3.068122
v 4.770921 9.094532 3.013219
v 4.791017 10.244533 2.938218
v 4.770921 10.244532 2.863218
v 4.716017 10.244532 2.808315
v 4.641017 10.244532 2.788218
v 4.566017 10.244532 2.808315
v 4.511113 10.244532 2.863218
v 4.491017 10.244533 2.938218
v 4.511113 10.244533 3.013218
v 4.566017 10.244533 3.068122
v 4.641017 10.244533 3.088218
v 4.716017 10.244533 3.068122
v 4.770921 10.244533 3.013218
v 4.791017 11.394532 2.938218
v 4.770921 11.394531 2.863218
v 4.716017 11.394531 2.808314
v 4.641017 11.394531 2.788218
v 4.566017 11.394531 2.808314
v 4.511113 11.394531 2.863218
v 4.491017 11.394532 2.938218
v 4.511113 11.394532 3.013218
v 4.566017 11.394532 3.068122
v 4.641017 11.394532 3.088218
v 4.716017 11.394532 3.068122
v 4.770921 11.394532 3.013218
vn 1.0000 -0.0000 -0.0000
vn 0.8660 -0.0000 -0.5000
vn 0.5000 -0.0000 -0.8660
vn -0.0000 -0.0000 -1.0000
vn -0.5000 -0.0000 -0.8660
vn -0.8660 -0.0000 -0.5000
vn -1.0000 -0.0000 -0.0000
vn -0.8660 -0.0000 0.5000
vn -0.5000 -0.0000 0.8660
vn -0.0000 -0.0000 1.0000
vn 0.5000 -0.0000 0.8660
vn 0.8660 -0.0000 0.5000
vt 0.585200 0.424077
vt 0.584008 0.424077
vt 0.584008 0.403691
vt 0.585200 0.403691
vt 0.582632 0.424077
vt 0.582632 0.403691
vt 0.581440 0.424077
vt 0.581440 0.403691
vt 0.684598 0.414781
vt 0.683406 0.414781
vt 0.683406 0.394395
vt 0.684598 0.394395
vt 0.682030 0.414781
vt 0.682030 0.394395
vt 0.680838 0.414781
vt 0.680838 0.394395
vt 0.572391 0.424077
vt 0.571199 0.424077
vt 0.571199 0.403691
vt 0.572391 0.403691
vt 0.569823 0.424077
vt 0.569823 0.403691
vt 0.568631 0.424077
vt 0.568631 0.403691
vt 0.682497 0.290978
vt 0.681305 0.290978
vt 0.681305 0.270592
vt 0.682497 0.270592
vt 0.679928 0.290978
vt 0.679928 0.270592
vt 0.678736 0.290978
vt 0.678736 0.270592
vt 0.584008 0.383305
vt 0.585200 0.383305
vt 0.582632 0.383305
vt 0.581440 0.383305
vt 0.683406 0.374009
vt 0.684598 0.374009
vt 0.682030 0.374009
vt 0.680838 0.374009
vt 0.571199 0.383305
vt 0.572391 0.383305
vt 0.569823 0.383305
vt 0.568631 0.383305
vt 0.681305 0.250206
vt 0.682497 0.250206
vt 0.679928 0.250206
vt 0.678736 0.250206
s 1
usemtl uv_checker_material_uv_grid_2048x2048
f 1/1/1 2/2/2 14/3/2 13/4/1
f 2/2/2 3/5/3 15/6/3 14/3/2
f 3/5/3 4/7/4 16/8/4 15/6/3
f 4/9/4 5/10/5 17/11/5 16/12/4
f 5/10/5 6/13/6 18/14/6 17/11/5
f 6/13/6 7/15/7 19/16/7 18/14/6
f 7/17/7 8/18/8 20/19/8 19/20/7
f 8/18/8 9/21/9 21/22/9 20/19/8
f 9/21/9 10/23/10 22/24/10 21/22/9
f 10/25/10 11/26/11 23/27/11 22/28/10
f 11/26/11 12/29/12 24/30/12 23/27/11
f 12/29/12 1/31/1 13/32/1 24/30/12
f 13/4/1 14/3/2 26/33/2 25/34/1
f 14/3/2 15/6/3 27/35/3 26/33/2
f 15/6/3 16/8/4 28/36/4 27/35/3
f 16/12/4 17/11/5 29/37/5 28/38/4
f 17/11/5 18/14/6 30/39/6 29/37/5
f 18/14/6 19/16/7 31/40/7 30/39/6
f 19/20/7 20/19/8 32/41/8 31/42/7
f 20/19/8 21/22/9 33/43/9 32/41/8
f 21/22/9 22/24/10 34/44/10 33/43/9
f 22/28/10 23/27/11 35/45/11 34/46/10
f 23/27/11 24/30/12 36/47/12 35/45/11
f 24/30/12 13/32/1 25/48/1 36/47/12
