# Blender 4.0.2
# www.blender.org
mtllib rip5.mtl
o rip5
v 3.639887 12.064689 3.938843
v 3.591903 12.016187 3.703797
v 3.941646 13.183708 3.939507
v 3.639887 12.881948 3.938843
v 3.728271 13.095325 3.939037
v 3.591903 12.891597 3.703797
v 3.932516 13.232211 3.704548
v 3.691666 13.132447 3.704017
v 3.591385 12.016187 3.938736
v 3.691149 13.132447 3.938955
v 3.931999 13.232211 3.939486
v 3.591385 12.891597 3.938735
v 3.639951 12.064689 3.910002
v 3.728334 13.095325 3.910197
v 3.941710 13.183708 3.910667
v 3.639951 12.881948 3.910002
v 4.516438 12.064689 3.940774
v 4.565458 12.016187 3.705943
v 4.214679 13.183708 3.940109
v 4.516438 12.881948 3.940774
v 4.428055 13.095325 3.940579
v 4.565458 12.891597 3.705943
v 4.224844 13.232211 3.705192
v 4.465694 13.132447 3.705723
v 4.564940 12.016187 3.940881
v 4.465177 13.132447 3.940661
v 4.224327 13.232211 3.940130
v 4.564940 12.891597 3.940881
v 4.516501 12.064689 3.911934
v 4.428118 13.095325 3.911739
v 4.214743 13.183708 3.911269
v 4.516501 12.881948 3.911934
vn -1.0000 -0.0000 -0.0022
vn -0.0022 -0.0000 1.0000
vn 0.0022 -0.0000 -1.0000
vn -0.3827 0.9239 -0.0008
vn -0.9239 0.3827 -0.0020
vn -0.0000 -1.0000 -0.0000
vn -0.0000 1.0000 -0.0000
vn 0.3827 -0.9239 0.0008
vn 1.0000 -0.0000 0.0022
vn 0.9239 -0.3827 0.0020
vn 0.3827 0.9239 0.0008
vn 0.9239 0.3827 0.0020
vn -0.3827 -0.9239 -0.0008
vn -0.9239 -0.3827 -0.0020
vt 0.457110 0.665584
vt 0.463283 0.653114
vt 0.466864 0.654559
vt 0.460698 0.667359
vt 0.923408 0.839226
vt 0.923408 0.822756
vt 0.924228 0.823577
vt 0.924228 0.838405
vt 0.621768 0.848439
vt 0.638237 0.848439
vt 0.638237 0.863248
vt 0.636550 0.867323
vt 0.632475 0.869010
vt 0.627530 0.869010
vt 0.623456 0.867323
vt 0.621768 0.863248
vt 0.465072 0.644903
vt 0.469264 0.645323
vt 0.468490 0.650221
vt 0.464711 0.649179
vt 0.463755 0.644845
vt 0.463792 0.640164
vt 0.464282 0.640136
vt 0.464260 0.644872
vt 0.465043 0.640100
vt 0.463832 0.648991
vt 0.462588 0.652819
vt 0.360886 0.866864
vt 0.375714 0.866864
vt 0.375714 0.880689
vt 0.374219 0.884299
vt 0.370610 0.885794
vt 0.365991 0.885794
vt 0.362381 0.884299
vt 0.360886 0.880689
vt 0.456741 0.664480
vt 0.924716 0.823577
vt 0.924716 0.838405
vt 0.463347 0.648892
vt 0.456330 0.664274
vt 0.462168 0.652648
vt 0.457161 0.618818
vt 0.460903 0.617038
vt 0.467070 0.630389
vt 0.463307 0.631824
vt 0.464664 0.635858
vt 0.468710 0.634975
vt 0.469284 0.639893
vt 0.463785 0.636044
vt 0.462587 0.632116
vt 0.456758 0.619953
vt 0.463297 0.636145
vt 0.462152 0.632284
vt 0.456330 0.620159
s 1
usemtl uv_checker_material_uv_grid_2048x2048
f 9/1/1 12/2/1 6/3/1 2/4/1
f 9/5/2 25/6/2 17/7/2 1/8/2
f 18/9/3 2/10/3 6/11/3 8/12/3 7/13/3 23/14/3 24/15/3 22/16/3
f 11/17/4 7/18/4 8/19/4 10/20/4
f 10/20/5 8/19/5 6/3/5 12/2/5
f 15/21/6 31/22/6 19/23/6 3/24/6
f 19/23/2 27/25/2 11/17/2 3/24/2
f 5/26/2 3/24/2 11/17/2 10/20/2
f 4/27/2 5/26/2 10/20/2 12/2/2
f 13/28/2 29/29/2 32/30/2 30/31/2 31/32/2 15/33/2 14/34/2 16/35/2
f 1/36/2 4/27/2 12/2/2 9/1/2
f 17/7/7 29/37/7 13/38/7 1/8/7
f 3/24/8 5/26/8 14/39/8 15/21/8
f 4/27/9 1/36/9 13/40/9 16/41/9
f 5/26/10 4/27/10 16/41/10 14/39/10
f 25/42/9 18/43/9 22/44/9 28/45/9
f 27/25/11 26/46/11 24/47/11 23/48/11
f 26/46/12 28/45/12 22/44/12 24/47/12
f 21/49/2 26/46/2 27/25/2 19/23/2
f 20/50/2 28/45/2 26/46/2 21/49/2
f 17/51/2 25/42/2 28/45/2 20/50/2
f 19/23/13 31/22/13 30/52/13 21/49/13
f 20/50/1 32/53/1 29/54/1 17/51/1
f 21/49/14 30/52/14 32/53/14 20/50/14
f 11/17/7 27/25/7 23/48/7 7/18/7
