# Blender 4.0.2
# www.blender.org
mtllib block2.mtl
o blockring
v 24.875950 9.052132 5.067580
v 24.875950 9.391764 5.067580
v 24.875950 9.052132 4.598450
v 24.875950 9.391764 4.598450
v 25.146944 9.052132 5.067580
v 25.146944 9.391764 5.067580
v 25.146944 9.052132 4.598450
v 25.146944 9.391764 4.598450
v 24.716940 9.052133 5.495715
v 24.716940 9.391765 5.495715
v 24.878153 9.052133 5.055155
v 24.878153 9.391765 5.055155
v 24.971432 9.052133 5.588840
v 24.971432 9.391765 5.588840
v 25.132643 9.052133 5.148280
v 25.132643 9.391765 5.148280
v 24.420488 9.052135 5.843135
v 24.420488 9.391767 5.843135
v 24.723278 9.052135 5.484804
v 24.723278 9.391767 5.484804
v 24.627480 9.052135 6.018042
v 24.627480 9.391767 6.018042
v 24.930269 9.052135 5.659710
v 24.930269 9.391767 5.659710
v 24.022703 9.052135 6.067525
v 24.022703 9.391768 6.067525
v 24.430191 9.052135 5.835066
v 24.430191 9.391768 5.835066
v 24.156984 9.052135 6.302911
v 24.156984 9.391768 6.302911
v 24.564470 9.052135 6.070452
v 24.564470 9.391768 6.070452
v 23.572033 9.052136 6.141554
v 23.572033 9.391769 6.141554
v 24.034588 9.052136 6.063281
v 24.034588 9.391769 6.063281
v 23.617249 9.052136 6.408750
v 23.617249 9.391769 6.408750
v 24.079802 9.052136 6.330476
v 24.079802 9.391769 6.330476
v 23.123369 9.052138 6.056207
v 23.123369 9.391770 6.056207
v 23.584652 9.052138 6.141653
v 23.584652 9.391770 6.141653
v 23.074011 9.052138 6.322669
v 23.074011 9.391770 6.322669
v 23.535294 9.052138 6.408114
v 23.535294 9.391770 6.408114
v 22.731356 9.052139 5.821878
v 22.731356 9.391771 5.821878
v 23.135185 9.052139 6.060635
v 23.135185 9.391771 6.060635
v 22.593437 9.052139 6.055151
v 22.593437 9.391771 6.055151
v 22.997267 9.052139 6.293908
v 22.997267 9.391771 6.293908
v 22.443741 9.052141 5.467107
v 22.443741 9.391773 5.467107
v 22.740931 9.052141 5.830097
v 22.740931 9.391773 5.830097
v 22.234060 9.052141 5.638780
v 22.234060 9.391773 5.638780
v 22.531250 9.052141 6.001769
v 22.531250 9.391773 6.001769
v 22.295557 9.052142 5.035106
v 22.295557 9.391774 5.035106
v 22.449909 9.052142 5.478116
v 22.449909 9.391774 5.478116
v 22.039650 9.052142 5.124269
v 22.039650 9.391774 5.124269
v 22.194004 9.052142 5.567278
v 22.194004 9.391774 5.567278
v 22.304848 9.052143 4.578491
v 22.304848 9.391776 4.578491
v 22.297565 9.052143 5.047564
v 22.297565 9.391776 5.047564
v 22.033886 9.052143 4.574284
v 22.033886 9.391776 4.574284
v 22.026604 9.052143 5.043356
v 22.026604 9.391776 5.043356
v 22.470486 9.052145 4.152875
v 22.470486 9.391777 4.152875
v 22.302454 9.052145 4.590880
v 22.302454 9.391777 4.590880
v 22.217472 9.052145 4.055811
v 22.217472 9.391777 4.055811
v 22.049438 9.052145 4.493815
v 22.049438 9.391777 4.493815
v 22.772295 9.052146 3.810100
v 22.772295 9.391778 3.810100
v 22.463980 9.052146 4.163687
v 22.463980 9.391778 4.163687
v 22.568045 9.052146 3.632000
v 22.568045 9.391778 3.632000
v 22.259729 9.052146 3.985588
v 22.259729 9.391778 3.985588
v 23.173517 9.052148 3.591913
v 23.173517 9.391780 3.591913
v 22.762470 9.052148 3.818017
v 22.762470 9.391780 3.818017
v 23.042906 9.052148 3.354470
v 23.042906 9.391780 3.354470
v 22.631861 9.052148 3.580575
v 22.631861 9.391780 3.580575
v 23.625282 9.052149 3.524889
v 23.625282 9.391781 3.524889
v 23.161570 9.052149 3.595972
v 23.161570 9.391781 3.595972
v 23.584221 9.052149 3.257023
v 23.584221 9.391781 3.257023
v 23.120508 9.052149 3.328107
v 23.120508 9.391781 3.328107
v 24.072567 9.052150 3.617192
v 24.072567 9.391783 3.617192
v 23.612667 9.052150 3.524595
v 23.612667 9.391783 3.524595
v 24.126057 9.052150 3.351529
v 24.126057 9.391783 3.351529
v 23.666155 9.052150 3.258932
v 23.666155 9.391783 3.258932
v 24.460896 9.052152 3.857579
v 24.460896 9.391784 3.857579
v 24.060822 9.052152 3.612581
v 24.060822 9.391784 3.612581
v 24.602419 9.052152 3.626475
v 24.602419 9.391784 3.626475
v 24.202345 9.052152 3.381477
v 24.202345 9.391784 3.381477
v 24.742966 9.052153 4.216772
v 24.742966 9.391785 4.216772
v 24.451448 9.052153 3.849212
v 24.451448 9.391785 3.849212
v 24.955288 9.052153 4.048375
v 24.955288 9.391785 4.048375
v 24.663771 9.052153 3.680816
v 24.663771 9.391785 3.680816
v 24.884428 9.052154 4.651021
v 24.884428 9.391787 4.651021
v 24.736971 9.052154 4.205668
v 24.736971 9.391787 4.205668
v 25.141687 9.052154 4.565843
v 25.141687 9.391787 4.565843
v 24.994230 9.052154 4.120490
v 24.994230 9.391787 4.120490
vn -1.0000 -0.0000 -0.0000
vn -0.0000 -0.0000 -1.0000
vn 1.0000 -0.0000 -0.0000
vn -0.0000 -0.0000 1.0000
vn -0.0000 1.0000 -0.0000
vn -0.9391 -0.0000 -0.3436
vn 0.3436 -0.0000 -0.9391
vn 0.9391 -0.0000 0.3436
vn -0.3436 -0.0000 0.9391
vn -0.7638 -0.0000 -0.6454
vn 0.6454 -0.0000 -0.7638
vn 0.7638 -0.0000 0.6454
vn -0.6454 -0.0000 0.7638
vn -0.4955 -0.0000 -0.8686
vn 0.8686 -0.0000 -0.4955
vn 0.4955 -0.0000 0.8686
vn -0.8686 -0.0000 0.4955
vn -0.1668 -0.0000 -0.9860
vn 0.9860 -0.0000 -0.1668
vn 0.1668 -0.0000 0.9860
vn -0.9860 -0.0000 0.1668
vn 0.1821 -0.0000 -0.9833
vn 0.9833 -0.0000 0.1821
vn -0.1821 -0.0000 0.9833
vn -0.9833 -0.0000 -0.1821
vn 0.5089 -0.0000 -0.8608
vn 0.8608 -0.0000 0.5089
vn -0.5089 -0.0000 0.8608
vn -0.8608 -0.0000 -0.5089
vn 0.7738 -0.0000 -0.6335
vn 0.6335 -0.0000 0.7737
vn -0.7738 -0.0000 0.6335
vn -0.6335 -0.0000 -0.7737
vn 0.9443 -0.0000 -0.3290
vn 0.3290 -0.0000 0.9443
vn -0.9443 -0.0000 0.3290
vn -0.3290 -0.0000 -0.9443
vn 0.9999 -0.0000 0.0155
vn -0.0155 -0.0000 0.9999
vn -0.9999 -0.0000 -0.0155
vn 0.0155 -0.0000 -0.9999
vn 0.9337 -0.0000 0.3582
vn -0.3582 -0.0000 0.9337
vn -0.9337 -0.0000 -0.3582
vn 0.3582 -0.0000 -0.9337
vn 0.7537 -0.0000 0.6572
vn -0.6572 -0.0000 0.7537
vn -0.7537 -0.0000 -0.6572
vn 0.6572 -0.0000 -0.7537
vn 0.4820 -0.0000 0.8762
vn -0.8762 -0.0000 0.4820
vn -0.4820 -0.0000 -0.8762
vn 0.8762 -0.0000 -0.4820
vn 0.1515 -0.0000 0.9885
vn -0.9885 -0.0000 0.1515
vn -0.1515 -0.0000 -0.9885
vn 0.9885 -0.0000 -0.1515
vn -0.1974 -0.0000 0.9803
vn -0.9803 -0.0000 -0.1974
vn 0.1974 -0.0000 -0.9803
vn 0.9803 -0.0000 0.1974
vn -0.5222 -0.0000 0.8528
vn -0.8528 -0.0000 -0.5222
vn 0.5222 -0.0000 -0.8528
vn 0.8528 -0.0000 0.5222
vn -0.7835 -0.0000 0.6214
vn -0.6214 -0.0000 -0.7835
vn 0.7835 -0.0000 -0.6214
vn 0.6214 -0.0000 0.7835
vn -0.9493 -0.0000 0.3143
vn -0.3143 -0.0000 -0.9493
vn 0.9493 -0.0000 -0.3143
vn 0.3143 -0.0000 0.9493
vt 0.369434 0.952019
vt 0.363688 0.952019
vt 0.363688 0.944083
vt 0.369434 0.944083
vt 0.910210 0.673365
vt 0.915956 0.673365
vt 0.915956 0.677950
vt 0.910210 0.677949
vt 0.915956 0.685886
vt 0.910210 0.685886
vt 0.915956 0.690470
vt 0.910211 0.690470
vt 0.920540 0.677950
vt 0.920540 0.685886
vt 0.008612 0.943056
vt 0.014357 0.943056
vt 0.014357 0.950992
vt 0.008612 0.950992
vt 0.909016 0.343857
vt 0.914761 0.343857
vt 0.914761 0.348441
vt 0.909016 0.348441
vt 0.914761 0.356378
vt 0.909016 0.356378
vt 0.914761 0.360962
vt 0.909016 0.360962
vt 0.919346 0.348441
vt 0.919346 0.356378
vt 0.299711 0.944149
vt 0.305456 0.944149
vt 0.305456 0.952085
vt 0.299711 0.952085
vt 0.915356 0.641143
vt 0.909611 0.641143
vt 0.909611 0.636559
vt 0.915356 0.636559
vt 0.909611 0.628622
vt 0.915356 0.628623
vt 0.909611 0.624038
vt 0.915356 0.624038
vt 0.905027 0.636559
vt 0.905026 0.628623
vt 0.278167 0.951278
vt 0.272422 0.951278
vt 0.272422 0.943342
vt 0.278167 0.943342
vt 0.910303 0.717525
vt 0.916049 0.717525
vt 0.916049 0.722109
vt 0.910303 0.722109
vt 0.916049 0.730045
vt 0.910303 0.730045
vt 0.916049 0.734630
vt 0.910303 0.734630
vt 0.920633 0.722109
vt 0.920633 0.730045
vt 0.880761 0.469847
vt 0.875015 0.469848
vt 0.875015 0.461911
vt 0.880761 0.461911
vt 0.909744 0.097490
vt 0.915490 0.097490
vt 0.915490 0.102074
vt 0.909744 0.102074
vt 0.915490 0.110011
vt 0.909744 0.110011
vt 0.915490 0.114595
vt 0.909744 0.114595
vt 0.920074 0.102074
vt 0.920074 0.110011
vt 0.320250 0.952085
vt 0.314505 0.952085
vt 0.314505 0.944149
vt 0.320250 0.944149
vt 0.909137 0.518495
vt 0.914882 0.518495
vt 0.914882 0.523079
vt 0.909137 0.523079
vt 0.914882 0.531015
vt 0.909137 0.531015
vt 0.914882 0.535599
vt 0.909137 0.535599
vt 0.919467 0.523079
vt 0.919467 0.531015
vt 0.949108 0.346599
vt 0.954854 0.346599
vt 0.954854 0.354535
vt 0.949108 0.354535
vt 0.908439 0.251321
vt 0.914184 0.251321
vt 0.914184 0.255905
vt 0.908439 0.255905
vt 0.914184 0.263842
vt 0.908439 0.263842
vt 0.914184 0.268426
vt 0.908439 0.268426
vt 0.918769 0.255905
vt 0.918768 0.263842
vt 0.889809 0.461911
vt 0.895555 0.461911
vt 0.895555 0.469848
vt 0.889809 0.469848
vt 0.909919 0.882636
vt 0.915664 0.882636
vt 0.915664 0.887220
vt 0.909919 0.887220
vt 0.915664 0.895156
vt 0.909919 0.895156
vt 0.915664 0.899741
vt 0.909919 0.899741
vt 0.920249 0.887220
vt 0.920249 0.895156
vt 0.194460 0.943175
vt 0.200205 0.943175
vt 0.200205 0.951112
vt 0.194459 0.951112
vt 0.050321 0.904044
vt 0.056067 0.904044
vt 0.056067 0.908629
vt 0.050321 0.908629
vt 0.056067 0.916565
vt 0.050321 0.916565
vt 0.056067 0.921149
vt 0.050321 0.921149
vt 0.060651 0.908629
vt 0.060651 0.916565
vt 0.041217 0.950992
vt 0.035472 0.950992
vt 0.035472 0.943056
vt 0.041217 0.943056
vt 0.906802 0.049901
vt 0.912548 0.049901
vt 0.912548 0.054485
vt 0.906802 0.054485
vt 0.912548 0.062421
vt 0.906802 0.062421
vt 0.912548 0.067006
vt 0.906802 0.067006
vt 0.917132 0.054485
vt 0.917132 0.062421
vt 0.462032 0.943663
vt 0.467778 0.943663
vt 0.467778 0.951600
vt 0.462032 0.951600
vt 0.917538 0.299953
vt 0.911792 0.299953
vt 0.911792 0.295369
vt 0.917538 0.295369
vt 0.911792 0.287433
vt 0.917538 0.287433
vt 0.911792 0.282848
vt 0.917538 0.282848
vt 0.907208 0.295369
vt 0.907208 0.287433
vt 0.947313 0.717525
vt 0.953059 0.717525
vt 0.953059 0.725461
vt 0.947313 0.725461
vt 0.908634 0.218932
vt 0.914379 0.218932
vt 0.914379 0.223516
vt 0.908634 0.223516
vt 0.914379 0.231453
vt 0.908634 0.231453
vt 0.914379 0.236037
vt 0.908634 0.236037
vt 0.918964 0.223516
vt 0.918964 0.231453
vt 0.947313 0.734510
vt 0.953059 0.734510
vt 0.953059 0.742446
vt 0.947313 0.742446
vt 0.914359 0.839861
vt 0.908614 0.839861
vt 0.908614 0.835277
vt 0.914359 0.835277
vt 0.908614 0.827341
vt 0.914359 0.827341
vt 0.908614 0.822756
vt 0.914359 0.822756
vt 0.904029 0.835277
vt 0.904029 0.827341
vt 0.949195 0.004524
vt 0.954941 0.004524
vt 0.954941 0.012460
vt 0.949195 0.012460
vt 0.909050 0.478919
vt 0.914796 0.478919
vt 0.914796 0.483504
vt 0.909050 0.483504
vt 0.914796 0.491440
vt 0.909050 0.491440
vt 0.914796 0.496024
vt 0.909050 0.496024
vt 0.919380 0.483504
vt 0.919380 0.491440
vt 0.894445 0.124838
vt 0.900191 0.124838
vt 0.900191 0.132774
vt 0.894445 0.132774
vt 0.920475 0.451693
vt 0.914729 0.451693
vt 0.914729 0.447109
vt 0.920475 0.447109
vt 0.914729 0.439173
vt 0.920475 0.439173
vt 0.914729 0.434588
vt 0.920475 0.434588
vt 0.910145 0.447109
vt 0.910145 0.439173
vt 0.332055 0.943217
vt 0.337801 0.943217
vt 0.337801 0.951153
vt 0.332055 0.951153
vt 0.908761 0.579737
vt 0.914506 0.579737
vt 0.914506 0.584321
vt 0.908761 0.584321
vt 0.914506 0.592257
vt 0.908761 0.592257
vt 0.914506 0.596842
vt 0.908761 0.596842
vt 0.919091 0.584321
vt 0.919091 0.592257
vt 0.954245 0.170272
vt 0.948499 0.170272
vt 0.948499 0.162335
vt 0.954245 0.162335
vt 0.749333 0.224023
vt 0.755078 0.224023
vt 0.755078 0.228607
vt 0.749333 0.228607
vt 0.755078 0.236543
vt 0.749333 0.236543
vt 0.755078 0.241128
vt 0.749333 0.241128
vt 0.759663 0.228607
vt 0.759663 0.236543
vt 0.443862 0.951684
vt 0.438116 0.951684
vt 0.438116 0.943748
vt 0.443862 0.943748
vt 0.908878 0.754963
vt 0.914623 0.754963
vt 0.914623 0.759548
vt 0.908878 0.759548
vt 0.914623 0.767484
vt 0.908878 0.767484
vt 0.914623 0.772068
vt 0.908878 0.772068
vt 0.919208 0.759548
vt 0.919208 0.767484
s 1
usemtl uv_checker_material_uv_grid_2048x2048
f 1/1/1 2/2/1 4/3/1 3/4/1
f 3/5/2 4/6/2 8/7/2 7/8/2
f 7/8/3 8/7/3 6/9/3 5/10/3
f 5/10/4 6/9/4 2/11/4 1/12/4
f 8/7/5 4/13/5 2/14/5 6/9/5
f 9/15/6 10/16/6 12/17/6 11/18/6
f 11/19/7 12/20/7 16/21/7 15/22/7
f 15/22/8 16/21/8 14/23/8 13/24/8
f 13/24/9 14/23/9 10/25/9 9/26/9
f 16/21/5 12/27/5 10/28/5 14/23/5
f 17/29/10 18/30/10 20/31/10 19/32/10
f 19/33/11 20/34/11 24/35/11 23/36/11
f 23/36/12 24/35/12 22/37/12 21/38/12
f 21/38/13 22/37/13 18/39/13 17/40/13
f 24/35/5 20/41/5 18/42/5 22/37/5
f 25/43/14 26/44/14 28/45/14 27/46/14
f 27/47/15 28/48/15 32/49/15 31/50/15
f 31/50/16 32/49/16 30/51/16 29/52/16
f 29/52/17 30/51/17 26/53/17 25/54/17
f 32/49/5 28/55/5 26/56/5 30/51/5
f 33/57/18 34/58/18 36/59/18 35/60/18
f 35/61/19 36/62/19 40/63/19 39/64/19
f 39/64/20 40/63/20 38/65/20 37/66/20
f 37/66/21 38/65/21 34/67/21 33/68/21
f 40/63/5 36/69/5 34/70/5 38/65/5
f 41/71/22 42/72/22 44/73/22 43/74/22
f 43/75/23 44/76/23 48/77/23 47/78/23
f 47/78/24 48/77/24 46/79/24 45/80/24
f 45/80/25 46/79/25 42/81/25 41/82/25
f 48/77/5 44/83/5 42/84/5 46/79/5
f 49/85/26 50/86/26 52/87/26 51/88/26
f 51/89/27 52/90/27 56/91/27 55/92/27
f 55/92/28 56/91/28 54/93/28 53/94/28
f 53/94/29 54/93/29 50/95/29 49/96/29
f 56/91/5 52/97/5 50/98/5 54/93/5
f 57/99/30 58/100/30 60/101/30 59/102/30
f 59/103/31 60/104/31 64/105/31 63/106/31
f 63/106/32 64/105/32 62/107/32 61/108/32
f 61/108/33 62/107/33 58/109/33 57/110/33
f 64/105/5 60/111/5 58/112/5 62/107/5
f 65/113/34 66/114/34 68/115/34 67/116/34
f 67/117/35 68/118/35 72/119/35 71/120/35
f 71/120/36 72/119/36 70/121/36 69/122/36
f 69/122/37 70/121/37 66/123/37 65/124/37
f 72/119/5 68/125/5 66/126/5 70/121/5
f 73/127/38 74/128/38 76/129/38 75/130/38
f 75/131/39 76/132/39 80/133/39 79/134/39
f 79/134/40 80/133/40 78/135/40 77/136/40
f 77/136/41 78/135/41 74/137/41 73/138/41
f 80/133/5 76/139/5 74/140/5 78/135/5
f 81/141/42 82/142/42 84/143/42 83/144/42
f 83/145/43 84/146/43 88/147/43 87/148/43
f 87/148/44 88/147/44 86/149/44 85/150/44
f 85/150/45 86/149/45 82/151/45 81/152/45
f 88/147/5 84/153/5 82/154/5 86/149/5
f 89/155/46 90/156/46 92/157/46 91/158/46
f 91/159/47 92/160/47 96/161/47 95/162/47
f 95/162/48 96/161/48 94/163/48 93/164/48
f 93/164/49 94/163/49 90/165/49 89/166/49
f 96/161/5 92/167/5 90/168/5 94/163/5
f 97/169/50 98/170/50 100/171/50 99/172/50
f 99/173/51 100/174/51 104/175/51 103/176/51
f 103/176/52 104/175/52 102/177/52 101/178/52
f 101/178/53 102/177/53 98/179/53 97/180/53
f 104/175/5 100/181/5 98/182/5 102/177/5
f 105/183/54 106/184/54 108/185/54 107/186/54
f 107/187/55 108/188/55 112/189/55 111/190/55
f 111/190/56 112/189/56 110/191/56 109/192/56
f 109/192/57 110/191/57 106/193/57 105/194/57
f 112/189/5 108/195/5 106/196/5 110/191/5
f 113/197/58 114/198/58 116/199/58 115/200/58
f 115/201/59 116/202/59 120/203/59 119/204/59
f 119/204/60 120/203/60 118/205/60 117/206/60
f 117/206/61 118/205/61 114/207/61 113/208/61
f 120/203/5 116/209/5 114/210/5 118/205/5
f 121/211/62 122/212/62 124/213/62 123/214/62
f 123/215/63 124/216/63 128/217/63 127/218/63
f 127/218/64 128/217/64 126/219/64 125/220/64
f 125/220/65 126/219/65 122/221/65 121/222/65
f 128/217/5 124/223/5 122/224/5 126/219/5
f 129/225/66 130/226/66 132/227/66 131/228/66
f 131/229/67 132/230/67 136/231/67 135/232/67
f 135/232/68 136/231/68 134/233/68 133/234/68
f 133/234/69 134/233/69 130/235/69 129/236/69
f 136/231/5 132/237/5 130/238/5 134/233/5
f 137/239/70 138/240/70 140/241/70 139/242/70
f 139/243/71 140/244/71 144/245/71 143/246/71
f 143/246/72 144/245/72 142/247/72 141/248/72
f 141/248/73 142/247/73 138/249/73 137/250/73
f 144/245/5 140/251/5 138/252/5 142/247/5
