# Blender 4.0.2
# www.blender.org
mtllib block.mtl
o block
v 11.225005 12.016186 4.606630
v 11.225005 14.016186 4.606629
v 11.225005 12.016185 2.606630
v 11.225005 14.016185 2.606629
v 13.225005 12.016186 4.606630
v 13.225005 14.016186 4.606629
v 13.225005 12.016185 2.606630
v 13.225005 14.016185 2.606629
vn -1.0000 -0.0000 -0.0000
vn -0.0000 -0.0000 -1.0000
vn 1.0000 -0.0000 -0.0000
vn -0.0000 -0.0000 1.0000
vn -0.0000 1.0000 -0.0000
vt 0.492149 0.529004
vt 0.468225 0.505080
vt 0.492149 0.481156
vt 0.516073 0.505080
vt 0.516073 0.457232
vt 0.468225 0.457232
vt 0.492149 0.433308
vt 0.444301 0.433308
vt 0.444301 0.481156
vt 0.420377 0.457232
vt 0.420377 0.505080
vt 0.444301 0.529005
s 1
usemtl uv_checker_material_uv_grid_2048x2048
f 1/1/1 2/2/1 4/3/1 3/4/1
f 3/5/2 4/3/2 8/6/2 7/7/2
f 7/8/3 8/6/3 6/9/3 5/10/3
f 5/11/4 6/9/4 2/2/4 1/12/4
f 8/6/5 4/3/5 2/2/5 6/9/5
