# Blender 4.0.2
# www.blender.org
mtllib grave1.mtl
o Grave_fragment
v 18.906748 10.452499 3.558386
v 18.127335 10.524369 3.523526
v 18.460920 10.126341 3.501995
v 18.838522 9.673322 3.477377
v 18.117043 10.505410 3.714556
v 18.896454 10.433540 3.749416
v 18.450628 10.107382 3.693024
v 18.828230 9.654362 3.668406
vn 0.0535 0.0986 -0.9937
vn -0.7659 -0.6345 -0.1042
vn -0.7667 -0.6334 -0.1042
vn -0.0535 -0.0986 0.9937
vn 0.0868 0.9909 0.1030
vn -0.7650 -0.6355 -0.1043
vn 0.9948 -0.0917 0.0445
vt 0.272422 0.920991
vt 0.285676 0.920991
vt 0.285676 0.934294
vt 0.278637 0.927211
vt 0.890232 0.194508
vt 0.890232 0.204494
vt 0.886980 0.204494
vt 0.886980 0.194508
vt 0.890038 0.150689
vt 0.890050 0.160674
vt 0.880661 0.151251
vt 0.890050 0.141896
vt 0.486874 0.918880
vt 0.486874 0.932134
vt 0.483622 0.932134
vt 0.483622 0.918880
vt 0.886980 0.185715
vt 0.890232 0.185715
vt 0.931767 0.531797
vt 0.928515 0.531797
vt 0.928515 0.518495
vt 0.931767 0.518495
s 1
usemtl uv_checker_material_uv_grid_2048x2048
f 2/1/1 1/2/1 4/3/1 3/4/1
f 3/5/2 4/6/3 8/7/3 7/8/2
f 7/9/4 8/10/4 6/11/4 5/12/4
f 5/13/5 6/14/5 1/15/5 2/16/5
f 3/5/2 7/8/2 5/17/6 2/18/6
f 8/19/7 4/20/7 1/21/7 6/22/7
