# Blender 4.0.2
# www.blender.org
mtllib grave.mtl
o Grave
v 18.818584 9.052132 5.709668
v 18.757334 9.302132 5.587167
v 17.818584 9.052132 5.709668
v 17.879835 9.302132 5.587167
v 18.818584 9.052132 3.709668
v 18.757334 9.302132 3.832169
v 17.818584 9.052132 3.709668
v 17.879835 9.302132 3.832169
v 18.818584 9.302132 5.709668
v 17.818584 9.302132 5.709668
v 17.818584 9.302132 3.709668
v 18.818584 9.302132 3.709668
v 18.750290 9.252329 5.573080
v 17.886879 9.252329 5.573080
v 17.886879 9.252329 3.846256
v 18.750290 9.252329 3.846256
v 18.757334 9.252329 5.587167
v 17.879835 9.252329 5.587167
v 17.879835 9.252329 3.832169
v 18.757334 9.252329 3.832169
v 18.750290 9.287414 5.573080
v 18.553526 9.336605 5.179552
v 18.735313 9.306238 5.543124
v 18.692659 9.322197 5.457818
v 18.628824 9.332860 5.330149
v 18.083643 9.336605 5.179552
v 17.886879 9.287414 5.573080
v 18.008345 9.332860 5.330149
v 17.944510 9.322197 5.457818
v 17.901855 9.306238 5.543124
v 18.083643 9.336605 4.239783
v 17.886879 9.287414 3.846256
v 18.008345 9.332860 4.089187
v 17.944510 9.322197 3.961517
v 17.901855 9.306238 3.876211
v 18.553526 9.336605 4.239783
v 18.750290 9.287414 3.846256
v 18.628824 9.332860 4.089187
v 18.692659 9.322197 3.961517
v 18.735313 9.306238 3.876211
v 17.818584 9.302132 3.503974
v 17.818584 9.052132 3.503974
v 18.818584 9.052132 3.503974
v 18.818584 9.302132 3.503974
v 17.818584 10.380969 3.709667
v 17.818584 10.380969 3.503974
v 18.818584 9.586806 3.709667
v 18.024422 10.380969 3.709667
v 18.024422 10.380969 3.503974
v 18.818584 9.586806 3.503974
vn -0.0000 -0.0000 1.0000
vn -1.0000 -0.0000 -0.0000
vn -0.0000 -0.0000 -1.0000
vn 1.0000 -0.0000 -0.0000
vn -0.0000 1.0000 -0.0000
vn -0.0001 1.0000 -0.0000
vn 0.0001 1.0000 -0.0000
vn -0.0000 0.9997 0.0249
vn -0.0000 0.9965 0.0832
vn -0.0000 0.9829 0.1839
vn -0.0000 0.8467 0.5321
vn -0.0497 0.9988 -0.0000
vn -0.1648 0.9863 -0.0000
vn -0.3504 0.9366 -0.0000
vn -0.7825 0.6226 -0.0000
vn -0.0000 0.9997 -0.0249
vn -0.0000 0.9965 -0.0832
vn -0.0000 0.9829 -0.1839
vn -0.0000 0.8467 -0.5321
vn 0.0497 0.9988 -0.0000
vn 0.1648 0.9863 -0.0000
vn 0.3504 0.9366 -0.0000
vn 0.7825 0.6226 -0.0000
vn 0.7071 0.7071 -0.0000
vt 0.077819 0.648408
vt 0.078704 0.652643
vt 0.064105 0.655374
vt 0.060879 0.651948
vt 0.060539 0.685818
vt 0.055321 0.685080
vt 0.621768 0.878059
vt 0.638685 0.878059
vt 0.638685 0.896309
vt 0.635203 0.896309
vt 0.621768 0.882875
vt 0.082943 0.686554
vt 0.078704 0.686554
vt 0.082943 0.652643
vt 0.134779 0.741308
vt 0.134779 0.768386
vt 0.133825 0.767593
vt 0.133987 0.742461
vt 0.077695 0.654810
vt 0.064886 0.656928
vt 0.062016 0.683581
vt 0.077646 0.684348
vt 0.393066 0.144703
vt 0.392651 0.175310
vt 0.391948 0.174751
vt 0.392501 0.145444
vt 0.118877 0.769925
vt 0.118877 0.742847
vt 0.119832 0.743640
vt 0.119670 0.768772
vt 0.376733 0.175386
vt 0.392757 0.175549
vt 0.376615 0.175611
vt 0.393188 0.144475
vt 0.376726 0.144764
vt 0.376615 0.144520
vt 0.377441 0.145334
vt 0.377287 0.174661
vt 0.388749 0.152250
vt 0.388521 0.168048
vt 0.380895 0.167966
vt 0.381014 0.152156
vt 0.389733 0.170546
vt 0.379628 0.170433
vt 0.390775 0.172676
vt 0.378539 0.172535
vt 0.391526 0.174145
vt 0.377748 0.173977
vt 0.390043 0.149759
vt 0.391157 0.147632
vt 0.391967 0.146172
vt 0.379775 0.149633
vt 0.378706 0.147478
vt 0.377936 0.145989
vt 0.917569 0.422173
vt 0.913340 0.422173
vt 0.913340 0.405256
vt 0.917569 0.405256
vt 0.059932 0.690111
vt 0.054714 0.689373
vt 0.082943 0.690042
vt 0.078704 0.690042
vt 0.728626 0.816668
vt 0.727264 0.820309
vt 0.722486 0.818245
vt 0.724213 0.815385
vt 0.710872 0.799863
vt 0.710872 0.803568
vt 0.707170 0.803568
vt 0.707170 0.799863
vt 0.730290 0.796161
vt 0.730290 0.799863
vt 0.710872 0.796161
vt 0.708649 0.806102
s 1
usemtl uv_checker_material_uv_grid_2048x2048
f 1/1/1 9/2/1 10/3/1 3/4/1
f 3/4/2 10/3/2 11/5/2 7/6/2
f 44/7/3 41/8/3 46/9/3 49/10/3 50/11/3
f 5/12/4 12/13/4 9/2/4 1/14/4
f 2/15/2 6/16/2 20/17/2 17/18/2
f 2/19/5 4/20/5 10/3/5 9/2/5
f 4/20/5 8/21/5 11/5/5 10/3/5
f 8/21/5 6/22/5 12/13/5 11/5/5
f 6/22/5 2/19/5 9/2/5 12/13/5
f 15/23/2 14/24/2 27/25/2 32/26/2
f 8/27/4 4/28/4 18/29/4 19/30/4
f 6/16/1 8/27/1 19/30/1 20/17/1
f 4/28/3 2/15/3 17/18/3 18/29/3
f 13/31/6 14/24/7 18/32/5 17/33/5
f 14/24/7 15/23/7 19/34/5 18/32/5
f 15/23/7 16/35/6 20/36/5 19/34/5
f 16/35/6 13/31/6 17/33/5 20/36/5
f 13/31/4 16/35/4 37/37/4 21/38/4
f 16/35/3 15/23/3 32/26/3 37/37/3
f 31/39/5 26/40/5 22/41/5 36/42/5
f 22/41/8 26/40/8 28/43/8 25/44/8
f 25/44/9 28/43/9 29/45/9 24/46/9
f 24/46/10 29/45/10 30/47/10 23/48/10
f 23/48/11 30/47/11 27/25/11 21/38/11
f 26/40/12 31/39/12 33/49/12 28/43/12
f 28/43/13 33/49/13 34/50/13 29/45/13
f 29/45/14 34/50/14 35/51/14 30/47/14
f 30/47/15 35/51/15 32/26/15 27/25/15
f 31/39/16 36/42/16 38/52/16 33/49/16
f 33/49/17 38/52/17 39/53/17 34/50/17
f 34/50/18 39/53/18 40/54/18 35/51/18
f 35/51/19 40/54/19 37/37/19 32/26/19
f 36/42/20 22/41/20 25/44/20 38/52/20
f 38/52/21 25/44/21 24/46/21 39/53/21
f 39/53/22 24/46/22 23/48/22 40/54/22
f 40/54/23 23/48/23 21/38/23 37/37/23
f 14/24/1 13/31/1 21/38/1 27/25/1
f 42/55/3 41/56/3 44/57/3 43/58/3
f 7/6/2 11/5/2 41/59/2 42/60/2
f 12/13/4 5/12/4 43/61/4 44/62/4
f 12/63/4 44/64/4 50/65/4 47/66/4
f 45/67/5 48/68/5 49/69/5 46/70/5
f 41/71/2 11/72/2 45/67/2 46/73/2
f 47/66/24 50/65/24 49/74/24 48/68/24
f 11/72/1 12/63/1 47/66/1 48/68/1 45/67/1
