# Blender 4.0.2
# www.blender.org
mtllib rip.mtl
o rio5
v 21.119595 9.052132 5.709668
v 21.058344 9.302132 5.587167
v 20.119595 9.052132 5.709668
v 20.180845 9.302132 5.587167
v 21.119595 9.052132 3.709668
v 21.058344 9.302132 3.832169
v 20.119595 9.052132 3.709668
v 20.180845 9.302132 3.832169
v 21.119595 9.302132 5.709668
v 20.119595 9.302132 5.709668
v 20.119595 9.302132 3.709668
v 21.119595 9.302132 3.709668
v 21.051300 9.252329 5.573080
v 20.187889 9.252329 5.573080
v 20.187889 9.252329 3.846256
v 21.051300 9.252329 3.846256
v 21.058344 9.252329 5.587167
v 20.180845 9.252329 5.587167
v 20.180845 9.252329 3.832169
v 21.058344 9.252329 3.832169
v 21.051300 9.287414 5.573080
v 20.854536 9.336605 5.179552
v 21.036324 9.306238 5.543124
v 20.993670 9.322197 5.457818
v 20.929834 9.332860 5.330149
v 20.384653 9.336605 5.179552
v 20.187889 9.287414 5.573080
v 20.309355 9.332860 5.330149
v 20.245520 9.322197 5.457818
v 20.202866 9.306238 5.543124
v 20.384653 9.336605 4.239783
v 20.187889 9.287414 3.846256
v 20.309355 9.332860 4.089187
v 20.245520 9.322197 3.961517
v 20.202866 9.306238 3.876211
v 20.854536 9.336605 4.239783
v 21.051300 9.287414 3.846256
v 20.929834 9.332860 4.089187
v 20.993670 9.322197 3.961517
v 21.036324 9.306238 3.876211
v 20.119595 9.302132 3.503974
v 20.119595 9.052132 3.503974
v 21.119595 9.052132 3.503974
v 21.119595 9.302132 3.503974
v 20.119595 10.380969 3.709667
v 21.119595 10.380969 3.709667
v 20.119595 10.380969 3.503974
v 21.119595 10.380969 3.503974
vn -0.0000 -0.0000 1.0000
vn -1.0000 -0.0000 -0.0000
vn 1.0000 -0.0000 -0.0000
vn -0.0000 1.0000 -0.0000
vn -0.0000 -0.0000 -1.0000
vn -0.0001 1.0000 -0.0000
vn 0.0001 1.0000 -0.0000
vn -0.0000 0.9997 0.0249
vn -0.0000 0.9965 0.0832
vn -0.0000 0.9829 0.1839
vn -0.0000 0.8467 0.5321
vn -0.0497 0.9988 -0.0000
vn -0.1648 0.9863 -0.0000
vn -0.3504 0.9366 -0.0000
vn -0.7825 0.6226 -0.0000
vn -0.0000 0.9997 -0.0249
vn -0.0000 0.9965 -0.0832
vn -0.0000 0.9829 -0.1839
vn -0.0000 0.8467 -0.5321
vn 0.0497 0.9988 -0.0000
vn 0.1648 0.9863 -0.0000
vn 0.3504 0.9366 -0.0000
vn 0.7825 0.6226 -0.0000
vt 0.625997 0.692352
vt 0.625997 0.688123
vt 0.642914 0.688123
vt 0.642914 0.692352
vt 0.647143 0.688123
vt 0.642914 0.654289
vt 0.647143 0.654289
vt 0.324917 0.823395
vt 0.324917 0.826875
vt 0.306666 0.826875
vt 0.306666 0.823395
vt 0.621768 0.654289
vt 0.625997 0.654289
vt 0.621768 0.688123
vt 0.748773 0.653144
vt 0.748773 0.624181
vt 0.749776 0.624992
vt 0.749608 0.652151
vt 0.627033 0.686050
vt 0.641878 0.686050
vt 0.641878 0.656361
vt 0.627033 0.656361
vt 0.472756 0.724349
vt 0.472260 0.754897
vt 0.471537 0.754254
vt 0.472104 0.725117
vt 0.763342 0.624038
vt 0.763342 0.653001
vt 0.762339 0.652190
vt 0.762507 0.625031
vt 0.749747 0.651932
vt 0.762216 0.651946
vt 0.762368 0.625250
vt 0.749899 0.625237
vt 0.456330 0.754945
vt 0.456330 0.724373
vt 0.457069 0.725032
vt 0.456968 0.754195
vt 0.468364 0.731909
vt 0.468134 0.747601
vt 0.460544 0.747532
vt 0.460639 0.731824
vt 0.469338 0.750082
vt 0.459289 0.749986
vt 0.470372 0.752195
vt 0.458210 0.752079
vt 0.471118 0.753653
vt 0.457426 0.753515
vt 0.469653 0.729424
vt 0.470764 0.727302
vt 0.471572 0.725844
vt 0.459401 0.729311
vt 0.458333 0.727166
vt 0.457564 0.725684
vt 0.917840 0.806756
vt 0.913611 0.806756
vt 0.913611 0.789840
vt 0.917840 0.789840
vt 0.642914 0.650810
vt 0.647143 0.650810
vt 0.621768 0.650810
vt 0.625997 0.650810
vt 0.306666 0.806478
vt 0.303187 0.823395
vt 0.303187 0.806478
vt 0.882669 0.218932
vt 0.899585 0.218932
vt 0.899585 0.237182
vt 0.882669 0.237182
vt 0.324917 0.806478
vt 0.324917 0.802998
vt 0.306666 0.802998
s 1
usemtl uv_checker_material_uv_grid_2048x2048
f 1/1/1 9/2/1 10/3/1 3/4/1
f 3/5/2 10/3/2 11/6/2 7/7/2
f 12/8/3 44/9/3 48/10/3 46/11/3
f 5/12/3 12/13/3 9/2/3 1/14/3
f 2/15/2 6/16/2 20/17/2 17/18/2
f 2/19/4 4/20/4 10/3/4 9/2/4
f 4/20/4 8/21/4 11/6/4 10/3/4
f 8/21/4 6/22/4 12/13/4 11/6/4
f 6/22/4 2/19/4 9/2/4 12/13/4
f 15/23/2 14/24/2 27/25/2 32/26/2
f 8/27/3 4/28/3 18/29/3 19/30/3
f 6/16/1 8/27/1 19/30/1 20/17/1
f 4/28/5 2/15/5 17/18/5 18/29/5
f 13/31/6 14/32/7 18/29/4 17/18/4
f 14/32/7 15/33/7 19/30/4 18/29/4
f 15/33/7 16/34/6 20/17/4 19/30/4
f 16/34/6 13/31/6 17/18/4 20/17/4
f 13/35/3 16/36/3 37/37/3 21/38/3
f 16/36/5 15/23/5 32/26/5 37/37/5
f 31/39/4 26/40/4 22/41/4 36/42/4
f 22/41/8 26/40/8 28/43/8 25/44/8
f 25/44/9 28/43/9 29/45/9 24/46/9
f 24/46/10 29/45/10 30/47/10 23/48/10
f 23/48/11 30/47/11 27/25/11 21/38/11
f 26/40/12 31/39/12 33/49/12 28/43/12
f 28/43/13 33/49/13 34/50/13 29/45/13
f 29/45/14 34/50/14 35/51/14 30/47/14
f 30/47/15 35/51/15 32/26/15 27/25/15
f 31/39/16 36/42/16 38/52/16 33/49/16
f 33/49/17 38/52/17 39/53/17 34/50/17
f 34/50/18 39/53/18 40/54/18 35/51/18
f 35/51/19 40/54/19 37/37/19 32/26/19
f 36/42/20 22/41/20 25/44/20 38/52/20
f 38/52/21 25/44/21 24/46/21 39/53/21
f 39/53/22 24/46/22 23/48/22 40/54/22
f 40/54/23 23/48/23 21/38/23 37/37/23
f 14/24/1 13/35/1 21/38/1 27/25/1
f 42/55/5 41/56/5 44/57/5 43/58/5
f 7/7/2 11/6/2 41/59/2 42/60/2
f 12/13/3 5/12/3 43/61/3 44/62/3
f 45/63/4 46/11/4 48/64/4 47/65/4
f 44/66/5 41/67/5 47/68/5 48/69/5
f 11/70/1 12/8/1 46/11/1 45/63/1
f 41/71/2 11/70/2 45/63/2 47/72/2
