# Blender 4.0.2
# www.blender.org
mtllib tumba.mtl
o tumbA
v 4.502667 0.000000 0.576969
v 4.502667 2.188403 0.576969
v 4.502667 0.000000 -0.893584
v 4.502667 2.188403 -0.893584
v 6.011326 0.000000 0.576969
v 6.011326 2.188403 0.576969
v 6.011326 0.000000 -0.893584
v 6.011326 2.188403 -0.893584
v 4.502667 1.814621 0.576969
v 4.502667 1.814621 -0.893584
v 6.011326 1.814621 -0.893584
v 6.011326 1.814621 0.576969
v 4.831903 2.106282 0.576969
v 4.762218 0.000000 -0.893584
v 4.871820 0.109602 0.576969
v 4.762218 2.188403 -0.893584
v 4.762218 1.814621 -0.893584
v 4.831903 1.871871 0.576969
v 4.762218 2.188403 0.576969
v 6.011326 2.106282 0.576969
v 6.011326 1.871871 0.576969
v 4.871820 1.705019 0.576969
v 6.011326 2.106282 0.493826
v 6.011326 1.871871 0.493826
v 4.831903 2.106282 0.493826
v 4.831903 1.871871 0.493826
v 4.762218 0.000000 0.576969
v 5.901723 1.705019 0.576969
v 5.901723 0.109602 0.576969
v 4.762218 1.814621 0.576969
v 5.901723 1.705019 0.518381
v 5.901723 0.109602 0.518381
v 4.871820 0.109602 0.518381
v 4.871820 1.705019 0.518381
v 5.993178 0.018148 0.576969
v 4.780366 0.018148 0.576969
v 5.993178 1.796473 0.576969
v 4.780366 1.796473 0.576969
v 4.762218 0.000000 0.610317
v 6.011326 0.000000 0.610317
v 6.011326 1.814621 0.610317
v 4.762218 1.814621 0.610317
v 4.780366 0.018148 0.610317
v 5.993178 0.018148 0.610317
v 5.993178 1.796473 0.610317
v 4.780366 1.796473 0.610317
v 4.353712 2.132156 0.646666
v 4.353712 2.252328 0.646666
v 4.353712 2.132156 -0.992751
v 4.353712 2.252328 -0.992751
v 6.011326 2.132156 0.646666
v 6.011326 2.252328 0.646666
v 6.011326 2.132156 -0.992751
v 6.011326 2.252328 -0.992751
v 4.497610 0.013430 0.309996
v 4.401135 0.013430 0.403228
v 4.398842 0.013430 0.537370
v 4.492073 0.013430 0.633845
v 4.626215 0.013430 0.636138
v 4.722691 0.013430 0.542907
v 4.724984 0.013430 0.408764
v 4.631752 0.013430 0.312290
v 4.497610 2.186262 0.309996
v 4.401135 2.186262 0.403228
v 4.398842 2.186262 0.537370
v 4.492073 2.186262 0.633845
v 4.626215 2.186262 0.636138
v 4.722691 2.186262 0.542907
v 4.724984 2.186262 0.408764
v 4.631752 2.186262 0.312290
v 4.497610 0.013430 -0.976420
v 4.401135 0.013430 -0.883189
v 4.398842 0.013430 -0.749046
v 4.492073 0.013430 -0.652572
v 4.626215 0.013430 -0.650278
v 4.722691 0.013430 -0.743510
v 4.724984 0.013430 -0.877652
v 4.631752 0.013430 -0.974127
v 4.497610 2.186262 -0.976420
v 4.401135 2.186262 -0.883189
v 4.398842 2.186262 -0.749046
v 4.492073 2.186262 -0.652572
v 4.626215 2.186262 -0.650278
v 4.722691 2.186262 -0.743510
v 4.724984 2.186262 -0.877652
v 4.631752 2.186262 -0.974127
v 7.519984 0.000000 0.576969
v 7.519984 2.188403 0.576969
v 7.519984 0.000000 -0.893584
v 7.519984 2.188403 -0.893584
v 7.519984 1.814621 0.576969
v 7.519984 1.814621 -0.893584
v 7.190748 2.106282 0.576969
v 7.260433 0.000000 -0.893584
v 7.150831 0.109602 0.576969
v 7.260433 2.188403 -0.893584
v 7.260433 1.814621 -0.893584
v 7.190748 1.871871 0.576969
v 7.260433 2.188403 0.576969
v 7.150831 1.705019 0.576969
v 7.190748 2.106282 0.493826
v 7.190748 1.871871 0.493826
v 7.260433 0.000000 0.576969
v 6.120928 1.705019 0.576969
v 6.120928 0.109602 0.576969
v 7.260433 1.814621 0.576969
v 6.120928 1.705019 0.518381
v 6.120928 0.109602 0.518381
v 7.150831 0.109602 0.518381
v 7.150831 1.705019 0.518381
v 6.029474 0.018148 0.576969
v 7.242286 0.018148 0.576969
v 6.029474 1.796473 0.576969
v 7.242286 1.796473 0.576969
v 7.260433 0.000000 0.610317
v 7.260433 1.814621 0.610317
v 7.242286 0.018148 0.610317
v 6.029474 0.018148 0.610317
v 6.029474 1.796473 0.610317
v 7.242286 1.796473 0.610317
v 7.668940 2.132156 0.646666
v 7.668940 2.252328 0.646666
v 7.668940 2.132156 -0.992751
v 7.668940 2.252328 -0.992751
v 7.525042 0.013430 0.309996
v 7.621516 0.013430 0.403228
v 7.623810 0.013430 0.537370
v 7.530579 0.013430 0.633845
v 7.396436 0.013430 0.636138
v 7.299961 0.013430 0.542907
v 7.297668 0.013430 0.408764
v 7.390900 0.013430 0.312290
v 7.525042 2.186262 0.309996
v 7.621516 2.186262 0.403228
v 7.623810 2.186262 0.537370
v 7.530579 2.186262 0.633845
v 7.396436 2.186262 0.636138
v 7.299961 2.186262 0.542907
v 7.297668 2.186262 0.408764
v 7.390900 2.186262 0.312290
v 7.525042 0.013430 -0.976420
v 7.621516 0.013430 -0.883189
v 7.623810 0.013430 -0.749046
v 7.530579 0.013430 -0.652572
v 7.396436 0.013430 -0.650278
v 7.299961 0.013430 -0.743510
v 7.297668 0.013430 -0.877652
v 7.390900 0.013430 -0.974127
v 7.525042 2.186262 -0.976420
v 7.621516 2.186262 -0.883189
v 7.623810 2.186262 -0.749046
v 7.530579 2.186262 -0.652572
v 7.396436 2.186262 -0.650278
v 7.299961 2.186262 -0.743510
v 7.297668 2.186262 -0.877652
v 7.390900 2.186262 -0.974127
vn -0.0000 -0.0000 1.0000
vn -1.0000 -0.0000 -0.0000
vn -0.0000 1.0000 -0.0000
vn -0.0000 -0.0000 -1.0000
vn 1.0000 -0.0000 -0.0000
vn -0.0000 -1.0000 -0.0000
vn 0.9999 -0.0000 0.0171
vn -0.0171 -0.0000 0.9999
vn -0.9999 -0.0000 -0.0171
vn 0.7191 -0.0000 -0.6949
vn 0.6949 -0.0000 0.7191
vn -0.7191 -0.0000 0.6949
vn -0.6949 -0.0000 -0.7191
vn 0.0171 -0.0000 -0.9999
vn -0.9999 -0.0000 0.0171
vn 0.0171 -0.0000 0.9999
vn 0.9999 -0.0000 -0.0171
vn -0.7191 -0.0000 -0.6949
vn -0.6949 -0.0000 0.7191
vn 0.7191 -0.0000 0.6949
vn 0.6949 -0.0000 -0.7191
vn -0.0171 -0.0000 -0.9999
vt 0.254201 0.152850
vt 0.245694 0.142672
vt 0.253461 0.140151
vt 0.259272 0.146354
vt 0.264673 0.118664
vt 0.272502 0.118751
vt 0.261403 0.114218
vt 0.216801 0.113338
vt 0.248353 0.091271
vt 0.270718 0.111263
vt 0.255680 0.086146
vt 0.328523 0.102874
vt 0.310871 0.047544
vt 0.313325 0.166241
vt 0.329557 0.112073
vt 0.310262 0.174260
vt 0.652092 0.099057
vt 0.652092 0.145835
vt 0.650374 0.145835
vt 0.650374 0.099057
vt 0.245666 0.146494
vt 0.251001 0.152877
vt 0.248737 0.154769
vt 0.243402 0.148386
vt 0.552098 0.220296
vt 0.558971 0.220296
vt 0.558971 0.254877
vt 0.552098 0.254877
vt 0.242088 0.142939
vt 0.214587 0.114887
vt 0.551555 0.133000
vt 0.551555 0.167581
vt 0.549876 0.169624
vt 0.549876 0.133000
vt 0.240086 0.144900
vt 0.212271 0.116507
vt 0.553993 0.133000
vt 0.553993 0.167581
vt 0.045530 0.471186
vt 0.045530 0.507811
vt 0.044553 0.507811
vt 0.044552 0.471186
vt 0.308701 0.176667
vt 0.253761 0.155685
vt 0.254154 0.154655
vt 0.309094 0.175637
vt 0.428513 0.175133
vt 0.428513 0.122992
vt 0.429491 0.122992
vt 0.429491 0.175133
vt 0.309869 0.175290
vt 0.253808 0.153880
vt 0.339524 0.628129
vt 0.339524 0.674907
vt 0.309327 0.674907
vt 0.309327 0.628129
vt 0.176528 0.690671
vt 0.176528 0.720868
vt 0.174810 0.720868
vt 0.174810 0.690671
vt 0.727607 0.315501
vt 0.727607 0.345698
vt 0.725889 0.345698
vt 0.725889 0.315501
vt 0.656962 0.362279
vt 0.656962 0.315501
vt 0.658680 0.315501
vt 0.658680 0.362279
vt 0.654281 0.364961
vt 0.654281 0.312820
vt 0.179209 0.687989
vt 0.179209 0.723549
vt 0.654774 0.096376
vt 0.654774 0.148517
vt 0.730288 0.312820
vt 0.730288 0.348380
vt 0.044020 0.507278
vt 0.044020 0.471719
vt 0.430023 0.122460
vt 0.430023 0.175665
vt 0.548366 0.169092
vt 0.548366 0.133532
vt 0.548899 0.133000
vt 0.548899 0.169624
vt 0.043043 0.507278
vt 0.043043 0.471719
vt 0.547389 0.169092
vt 0.547389 0.133532
vt 0.058237 0.489093
vt 0.058237 0.485570
vt 0.106305 0.485570
vt 0.106305 0.489093
vt 0.109829 0.485570
vt 0.106305 0.436968
vt 0.109829 0.436968
vt 0.054714 0.436968
vt 0.058237 0.436968
vt 0.054714 0.485570
vt 0.446486 0.101727
vt 0.446486 0.053126
vt 0.494554 0.053126
vt 0.494554 0.101727
vt 0.043719 0.023245
vt 0.043278 0.019492
vt 0.045665 0.344164
vt 0.044850 0.341525
vt 0.045206 0.023247
vt 0.044460 0.024497
vt 0.043703 0.340694
vt 0.042465 0.341564
vt 0.045535 0.013250
vt 0.045665 0.019495
vt 0.042061 0.343893
vt 0.042254 0.347889
vt 0.043437 0.013247
vt 0.045403 0.348046
vt 0.044504 0.004524
vt 0.043753 0.353001
vt 0.032595 0.016197
vt 0.033012 0.013812
vt 0.029533 0.342997
vt 0.029997 0.339190
vt 0.030096 0.016209
vt 0.031271 0.017049
vt 0.030754 0.337921
vt 0.031507 0.339192
vt 0.029608 0.009532
vt 0.029533 0.013730
vt 0.031957 0.343000
vt 0.031799 0.349337
vt 0.032818 0.009734
vt 0.029670 0.349335
vt 0.031291 0.004524
vt 0.030720 0.358188
vt 0.192516 0.064654
vt 0.200357 0.062119
vt 0.204191 0.069705
vt 0.199158 0.076136
vt 0.230823 0.059160
vt 0.228219 0.066544
vt 0.231274 0.071141
vt 0.237245 0.063404
vt 0.264953 0.011984
vt 0.200218 0.004524
vt 0.256667 0.007858
vt 0.191635 0.004650
vt 0.657137 0.252887
vt 0.658855 0.252887
vt 0.658855 0.299665
vt 0.657137 0.299665
vt 0.195558 0.074852
vt 0.193004 0.076330
vt 0.188838 0.069129
vt 0.191393 0.067651
vt 0.552098 0.185715
vt 0.558971 0.185715
vt 0.197670 0.079432
vt 0.549876 0.096376
vt 0.551555 0.098419
vt 0.195142 0.080640
vt 0.553993 0.098419
vt 0.045530 0.544435
vt 0.044552 0.544435
vt 0.188838 0.005291
vt 0.189941 0.005275
vt 0.190804 0.064079
vt 0.189702 0.064095
vt 0.431533 0.175133
vt 0.430555 0.175133
vt 0.430555 0.122992
vt 0.431533 0.122992
vt 0.191413 0.064670
vt 0.190532 0.004666
vt 0.188838 0.625051
vt 0.219035 0.625051
vt 0.219035 0.671829
vt 0.188838 0.671829
vt 0.678803 0.725607
vt 0.677085 0.725607
vt 0.677085 0.695410
vt 0.678803 0.695410
vt 0.728813 0.376691
vt 0.730531 0.376691
vt 0.730531 0.406888
vt 0.728813 0.406888
vt 0.653637 0.482768
vt 0.651919 0.482768
vt 0.651919 0.435990
vt 0.653637 0.435990
vt 0.656319 0.433308
vt 0.656319 0.485449
vt 0.681484 0.692728
vt 0.681484 0.728288
vt 0.654455 0.302346
vt 0.654455 0.250206
vt 0.726131 0.409569
vt 0.726131 0.374009
vt 0.044020 0.508343
vt 0.044020 0.543903
vt 0.548366 0.096908
vt 0.548899 0.096376
vt 0.548366 0.132468
vt 0.043043 0.508343
vt 0.043043 0.543903
vt 0.547389 0.096908
vt 0.547389 0.132468
vt 0.058237 0.384843
vt 0.106305 0.384843
vt 0.106305 0.388367
vt 0.058237 0.388367
vt 0.109829 0.388367
vt 0.054714 0.388367
vt 0.446486 0.004524
vt 0.494554 0.004524
vt 0.007814 0.013432
vt 0.004852 0.355120
vt 0.006256 0.361121
vt 0.006754 0.004524
vt 0.007489 0.023638
vt 0.005193 0.348606
vt 0.004524 0.351069
vt 0.007954 0.019808
vt 0.005966 0.023636
vt 0.007321 0.348526
vt 0.006373 0.347769
vt 0.006726 0.024915
vt 0.007672 0.355076
vt 0.005669 0.013428
vt 0.005512 0.019804
vt 0.007954 0.351087
vt 0.020348 0.013381
vt 0.017329 0.353084
vt 0.018720 0.359034
vt 0.019296 0.004524
vt 0.020021 0.023529
vt 0.017660 0.346638
vt 0.017002 0.349073
vt 0.020485 0.019720
vt 0.018508 0.023526
vt 0.019789 0.346567
vt 0.018768 0.345762
vt 0.019263 0.024798
vt 0.020123 0.353008
vt 0.018215 0.013377
vt 0.018057 0.019717
vt 0.020485 0.349179
s 1
f 30/1/1 19/2/1 2/3/1 9/4/1
f 9/4/2 2/3/2 4/5/2 10/6/2
f 16/7/3 19/2/3 6/8/3 8/9/3
f 17/10/4 16/7/4 8/9/4 11/11/4
f 14/12/4 17/10/4 11/11/4 7/13/4
f 1/14/2 9/4/2 10/6/2 3/15/2
f 27/16/1 30/1/1 9/4/1 1/14/1
f 29/17/2 28/18/2 31/19/2 32/20/2
f 3/15/4 10/6/4 17/10/4 14/12/4
f 10/6/4 4/5/4 16/7/4 17/10/4
f 4/5/3 2/3/3 19/2/3 16/7/3
f 13/21/5 18/22/5 26/23/5 25/24/5
f 24/25/1 23/26/1 25/27/1 26/28/1
f 13/29/1 20/30/1 6/8/1 19/2/1
f 21/31/1 18/32/1 30/33/1 12/34/1
f 18/22/1 13/21/1 19/2/1 30/1/1
f 20/30/6 13/29/6 25/35/6 23/36/6
f 18/32/3 21/31/3 24/37/3 26/38/3
f 27/39/6 5/40/6 40/41/6 39/42/6
f 36/43/5 38/44/5 46/45/5 43/46/5
f 37/47/2 35/48/2 44/49/2 45/50/2
f 30/1/2 27/16/2 39/51/2 42/52/2
f 32/53/1 31/54/1 34/55/1 33/56/1
f 28/57/6 22/58/6 34/59/6 31/60/6
f 15/61/3 29/62/3 32/63/3 33/64/3
f 22/65/5 15/66/5 33/67/5 34/68/5
f 15/66/1 22/65/1 38/69/1 36/70/1
f 22/58/1 28/57/1 37/71/1 38/72/1
f 28/18/1 29/17/1 35/73/1 37/74/1
f 29/62/1 15/61/1 36/75/1 35/76/1
f 44/77/1 43/78/1 39/42/1 40/41/1
f 45/50/1 44/49/1 40/79/1 41/80/1
f 46/81/1 45/82/1 41/83/1 42/84/1
f 43/46/1 46/45/1 42/52/1 39/51/1
f 35/85/3 36/86/3 43/78/3 44/77/3
f 12/34/3 30/33/3 42/84/3 41/83/3
f 38/87/6 37/88/6 45/82/6 46/81/6
f 47/89/2 48/90/2 50/91/2 49/92/2
f 49/93/4 50/91/4 54/94/4 53/95/4
f 51/96/1 52/97/1 48/90/1 47/98/1
f 49/99/6 53/100/6 51/101/6 47/102/6
f 54/94/3 50/91/3 48/90/3 52/97/3
f 60/103/7 61/104/7 69/105/7 68/106/7
f 58/107/8 59/108/8 67/109/8 66/110/8
f 56/111/9 57/112/9 65/113/9 64/114/9
f 61/104/10 62/115/10 70/116/10 69/105/10
f 59/108/11 60/103/11 68/106/11 67/109/11
f 57/112/12 58/107/12 66/110/12 65/113/12
f 55/117/13 56/111/13 64/114/13 63/118/13
f 62/115/14 55/117/14 63/118/14 70/116/14
f 76/119/7 77/120/7 85/121/7 84/122/7
f 74/123/8 75/124/8 83/125/8 82/126/8
f 72/127/9 73/128/9 81/129/9 80/130/9
f 77/120/10 78/131/10 86/132/10 85/121/10
f 75/124/11 76/119/11 84/122/11 83/125/11
f 73/128/12 74/123/12 82/126/12 81/129/12
f 71/133/13 72/127/13 80/130/13 79/134/13
f 78/131/14 71/133/14 79/134/14 86/132/14
f 106/135/1 91/136/1 88/137/1 99/138/1
f 91/136/5 92/139/5 90/140/5 88/137/5
f 96/141/3 8/9/3 6/8/3 99/138/3
f 97/142/4 11/11/4 8/9/4 96/141/4
f 94/143/4 7/13/4 11/11/4 97/142/4
f 87/144/5 89/145/5 92/139/5 91/136/5
f 103/146/1 87/144/1 91/136/1 106/135/1
f 105/147/5 108/148/5 107/149/5 104/150/5
f 89/145/4 94/143/4 97/142/4 92/139/4
f 92/139/4 97/142/4 96/141/4 90/140/4
f 90/140/3 96/141/3 99/138/3 88/137/3
f 93/151/2 101/152/2 102/153/2 98/154/2
f 24/25/1 102/155/1 101/156/1 23/26/1
f 93/157/1 99/138/1 6/8/1 20/30/1
f 21/31/1 12/34/1 106/158/1 98/159/1
f 98/154/1 106/135/1 99/138/1 93/151/1
f 20/30/6 23/36/6 101/160/6 93/157/6
f 98/159/3 102/161/3 24/37/3 21/31/3
f 103/162/6 115/163/6 40/41/6 5/40/6
f 112/164/2 117/165/2 120/166/2 114/167/2
f 113/168/5 119/169/5 118/170/5 111/171/5
f 106/135/5 116/172/5 115/173/5 103/146/5
f 108/174/1 109/175/1 110/176/1 107/177/1
f 104/178/6 107/179/6 110/180/6 100/181/6
f 95/182/3 109/183/3 108/184/3 105/185/3
f 100/186/2 110/187/2 109/188/2 95/189/2
f 95/189/1 112/190/1 114/191/1 100/186/1
f 100/181/1 114/192/1 113/193/1 104/178/1
f 104/150/1 113/194/1 111/195/1 105/147/1
f 105/185/1 111/196/1 112/197/1 95/182/1
f 118/198/1 40/41/1 115/163/1 117/199/1
f 119/169/1 41/80/1 40/79/1 118/170/1
f 120/200/1 116/201/1 41/83/1 119/202/1
f 117/165/1 115/173/1 116/172/1 120/166/1
f 111/203/3 118/198/3 117/199/3 112/204/3
f 12/34/3 41/83/3 116/201/3 106/158/3
f 114/205/6 120/200/6 119/202/6 113/206/6
f 121/207/5 123/208/5 124/209/5 122/210/5
f 123/211/4 53/95/4 54/94/4 124/209/4
f 51/96/1 121/212/1 122/210/1 52/97/1
f 123/213/6 121/214/6 51/101/6 53/100/6
f 54/94/3 52/97/3 122/210/3 124/209/3
f 130/215/15 138/216/15 139/217/15 131/218/15
f 128/219/16 136/220/16 137/221/16 129/222/16
f 126/223/17 134/224/17 135/225/17 127/226/17
f 131/218/18 139/217/18 140/227/18 132/228/18
f 129/222/19 137/221/19 138/216/19 130/215/19
f 127/226/20 135/225/20 136/220/20 128/219/20
f 125/229/21 133/230/21 134/224/21 126/223/21
f 132/228/22 140/227/22 133/230/22 125/229/22
f 146/231/15 154/232/15 155/233/15 147/234/15
f 144/235/16 152/236/16 153/237/16 145/238/16
f 142/239/17 150/240/17 151/241/17 143/242/17
f 147/234/18 155/233/18 156/243/18 148/244/18
f 145/238/19 153/237/19 154/232/19 146/231/19
f 143/242/20 151/241/20 152/236/20 144/235/20
f 141/245/21 149/246/21 150/240/21 142/239/21
f 148/244/22 156/243/22 149/246/22 141/245/22
