# Blender 4.0.2
# www.blender.org
mtllib zabor3.mtl
o zabor3
v 0.560796 17.279341 2.646042
v 0.560796 18.060654 2.646042
v 0.571063 17.279341 2.333684
v 0.571063 18.060654 2.333684
v 0.873153 17.279341 2.656309
v 0.873153 18.060654 2.656309
v 0.883420 17.279341 2.343951
v 0.883420 18.060654 2.343951
v 0.560796 17.377005 2.646042
v 0.560796 17.669998 2.646042
v 0.560796 17.962990 2.646042
v 0.571063 17.962990 2.333684
v 0.571063 17.669998 2.333684
v 0.571063 17.377005 2.333684
v 0.883420 17.962990 2.343951
v 0.883420 17.669998 2.343951
v 0.883420 17.377005 2.343951
v 0.873153 17.962990 2.656309
v 0.873153 17.669998 2.656309
v 0.873153 17.377005 2.656309
v 0.602121 17.543037 2.600129
v 0.597574 17.508974 2.611605
v 0.609322 17.543037 2.607820
v 0.602121 17.578579 2.600129
v 0.609322 17.578579 2.607820
v 0.595670 17.608202 2.613388
v 0.602121 17.761415 2.600129
v 0.595670 17.731792 2.613388
v 0.609322 17.761415 2.607820
v 0.602121 17.796957 2.600129
v 0.609322 17.796957 2.607820
v 0.597574 17.831020 2.611605
v 0.609284 17.796957 2.382211
v 0.605500 17.831020 2.370462
v 0.616975 17.796957 2.375011
v 0.609284 17.761415 2.382211
v 0.616975 17.761415 2.375011
v 0.603717 17.731792 2.368558
v 0.609284 17.578579 2.382211
v 0.603717 17.608202 2.368558
v 0.616975 17.578579 2.375011
v 0.609284 17.543037 2.382211
v 0.616975 17.543037 2.375011
v 0.605500 17.508974 2.370462
v 0.834893 17.796957 2.382173
v 0.846642 17.831020 2.378390
v 0.842094 17.796957 2.389864
v 0.834893 17.761415 2.382173
v 0.842094 17.761415 2.389864
v 0.848546 17.731792 2.376605
v 0.834893 17.578579 2.382173
v 0.848546 17.608202 2.376605
v 0.842094 17.578579 2.389864
v 0.834893 17.543037 2.382173
v 0.842094 17.543037 2.389864
v 0.846642 17.508974 2.378390
v 0.834931 17.796957 2.607782
v 0.838715 17.831020 2.619531
v 0.827241 17.796957 2.614984
v 0.834931 17.761415 2.607782
v 0.827241 17.761415 2.614984
v 0.840499 17.731792 2.621435
v 0.834931 17.578579 2.607782
v 0.840499 17.608202 2.621435
v 0.827241 17.578579 2.614984
v 0.834931 17.543037 2.607782
v 0.827241 17.543037 2.614984
v 0.838715 17.508974 2.619531
v -1.086516 17.279341 2.639277
v -1.086516 18.060654 2.639277
v -1.098473 17.279341 2.326979
v -1.098473 18.060654 2.326979
v -0.774219 17.279341 2.627320
v -0.774219 18.060654 2.627320
v -0.786176 17.279341 2.315023
v -0.786176 18.060654 2.315023
v -1.086516 17.377005 2.639277
v -1.086516 17.669998 2.639277
v -1.086516 17.962990 2.639277
v -1.098473 17.962990 2.326979
v -1.098473 17.669998 2.326979
v -1.098473 17.377005 2.326979
v -0.786176 17.962990 2.315023
v -0.786176 17.669998 2.315023
v -0.786176 17.377005 2.315023
v -0.774219 17.962990 2.627320
v -0.774219 17.669998 2.627320
v -0.774219 17.377005 2.627320
v -1.048558 17.543037 2.590544
v -1.052278 17.508974 2.602314
v -1.040829 17.543037 2.597703
v -1.048558 17.578579 2.590544
v -1.040829 17.578579 2.597703
v -1.054051 17.608202 2.604227
v -1.048558 17.761415 2.590544
v -1.054051 17.731792 2.604227
v -1.040829 17.761415 2.597703
v -1.048558 17.796957 2.590544
v -1.040829 17.796957 2.597703
v -1.052278 17.831020 2.602314
v -1.056900 17.796957 2.372668
v -1.061509 17.831020 2.361217
v -1.049741 17.796957 2.364938
v -1.056900 17.761415 2.372668
v -1.049741 17.761415 2.364938
v -1.063424 17.731792 2.359444
v -1.056900 17.578579 2.372668
v -1.063424 17.608202 2.359444
v -1.049741 17.578579 2.364938
v -1.056900 17.543037 2.372668
v -1.049741 17.543037 2.364938
v -1.061509 17.508974 2.361217
v -0.831864 17.796957 2.356596
v -0.820414 17.831020 2.351987
v -0.824134 17.796957 2.363756
v -0.831864 17.761415 2.356596
v -0.824134 17.761415 2.363756
v -0.818642 17.731792 2.350073
v -0.831864 17.578579 2.356596
v -0.818642 17.608202 2.350073
v -0.824134 17.578579 2.363756
v -0.831864 17.543037 2.356596
v -0.824134 17.543037 2.363756
v -0.820414 17.508974 2.351987
v -0.815793 17.796957 2.581632
v -0.811183 17.831020 2.593082
v -0.822952 17.796957 2.589362
v -0.815793 17.761415 2.581632
v -0.822952 17.761415 2.589362
v -0.809270 17.731792 2.594855
v -0.815793 17.578579 2.581632
v -0.809270 17.608202 2.594855
v -0.822952 17.578579 2.589362
v -0.815793 17.543037 2.581632
v -0.822952 17.543037 2.589362
v -0.811183 17.508974 2.593082
v 2.106143 18.117901 2.276973
v -0.970676 18.117901 2.172141
v 2.039028 18.117901 2.781560
v -0.938062 18.117901 2.680127
v 2.106143 18.044455 2.276973
v -0.970676 18.044455 2.172141
v 2.039028 18.044455 2.781560
v -0.938062 18.044455 2.680127
vn -0.9995 -0.0000 -0.0329
vn 0.0329 -0.0000 -0.9995
vn 0.9995 -0.0000 0.0329
vn -0.0329 -0.0000 0.9995
vn -0.0000 1.0000 -0.0000
vn -0.8770 -0.4797 -0.0288
vn -0.8770 0.4797 -0.0288
vn -0.9649 -0.2606 -0.0317
vn 0.0317 -0.2606 -0.9649
vn 0.9649 0.2606 0.0317
vn 0.8770 -0.4797 0.0288
vn 0.8770 0.4797 0.0288
vn 0.9649 -0.2606 0.0317
vn 0.0317 0.2606 -0.9649
vn 0.0328 -0.0000 -0.9995
vn 0.0288 -0.4797 -0.8770
vn 0.0288 0.4797 -0.8770
vn -0.0317 0.2606 0.9649
vn -0.0288 -0.4797 0.8770
vn -0.0288 0.4797 0.8770
vn -0.0317 -0.2606 0.9649
vn -0.6936 0.3114 0.6495
vn -0.6619 -0.4216 0.6198
vn -0.6619 0.4216 0.6198
vn -0.6936 -0.3114 0.6495
vn -0.6495 -0.3114 -0.6937
vn -0.6198 0.4216 -0.6619
vn -0.6198 -0.4216 -0.6619
vn -0.6495 0.3114 -0.6937
vn 0.6937 -0.3114 -0.6495
vn 0.6620 0.4215 -0.6198
vn 0.6619 -0.4216 -0.6198
vn 0.6937 0.3114 -0.6495
vn 0.6495 -0.3114 0.6936
vn 0.6198 0.4216 0.6619
vn 0.6199 -0.4215 0.6618
vn 0.6496 0.3114 0.6936
vn -0.7300 -0.0000 0.6835
vn -0.7299 -0.0000 0.6835
vn -0.6835 -0.0000 -0.7300
vn 0.7299 -0.0000 -0.6835
vn 0.7300 -0.0000 -0.6835
vn 0.6836 -0.0000 0.7299
vn -0.0326 0.1215 0.9921
vn -0.0322 -0.1989 0.9795
vn -0.0322 0.1989 0.9795
vn -0.0326 -0.1215 0.9921
vn 0.9921 0.1215 0.0326
vn 0.9795 -0.1989 0.0322
vn 0.9795 0.1989 0.0322
vn 0.9921 -0.1215 0.0326
vn 0.0326 0.1215 -0.9921
vn 0.0322 -0.1990 -0.9795
vn 0.0322 0.1990 -0.9795
vn 0.0326 -0.1215 -0.9921
vn -0.9921 0.1214 -0.0326
vn -0.9795 -0.1989 -0.0322
vn -0.9795 0.1989 -0.0322
vn -0.9921 -0.1214 -0.0326
vn -0.9649 0.2606 -0.0317
vn -0.9993 -0.0000 0.0383
vn -0.0383 -0.0000 -0.9993
vn 0.9993 -0.0000 -0.0383
vn 0.0383 -0.0000 0.9993
vn -0.8768 -0.4797 0.0336
vn -0.8768 0.4797 0.0336
vn -0.9647 -0.2606 0.0369
vn -0.0369 -0.2606 -0.9647
vn 0.9647 0.2606 -0.0369
vn 0.8768 -0.4797 -0.0336
vn 0.8768 0.4797 -0.0336
vn 0.9647 -0.2606 -0.0369
vn -0.0369 0.2606 -0.9647
vn -0.0336 -0.4797 -0.8768
vn -0.0336 0.4797 -0.8768
vn 0.0369 0.2606 0.9647
vn 0.0336 -0.4797 0.8768
vn 0.0336 0.4797 0.8768
vn 0.0369 -0.2606 0.9647
vn -0.6458 0.3114 0.6972
vn -0.6163 -0.4215 0.6652
vn -0.6162 0.4215 0.6653
vn -0.6457 -0.3114 0.6972
vn -0.6972 -0.3114 -0.6457
vn -0.6653 0.4216 -0.6162
vn -0.6653 -0.4216 -0.6161
vn -0.6972 0.3114 -0.6457
vn 0.6457 -0.3114 -0.6972
vn 0.6162 0.4216 -0.6653
vn 0.6162 -0.4215 -0.6653
vn 0.6458 0.3114 -0.6972
vn 0.6972 -0.3114 0.6457
vn 0.6653 0.4216 0.6162
vn 0.6653 -0.4216 0.6162
vn 0.6973 0.3114 0.6457
vn -0.6795 -0.0000 0.7337
vn -0.7337 -0.0000 -0.6795
vn 0.6795 -0.0000 -0.7337
vn 0.7337 -0.0000 0.6795
vn 0.0380 0.1215 0.9919
vn 0.0375 -0.1989 0.9793
vn 0.0375 0.1989 0.9793
vn 0.0380 -0.1215 0.9919
vn 0.9919 0.1214 -0.0380
vn 0.9793 -0.1989 -0.0375
vn 0.9793 0.1989 -0.0375
vn 0.9919 -0.1214 -0.0380
vn -0.0380 0.1215 -0.9919
vn -0.0375 -0.1989 -0.9793
vn -0.0375 0.1989 -0.9793
vn -0.0380 -0.1215 -0.9919
vn -0.9919 0.1214 0.0380
vn -0.9793 -0.1989 0.0375
vn -0.9793 0.1989 0.0375
vn -0.9919 -0.1214 0.0380
vn -0.9647 0.2606 0.0369
vn -0.0000 -1.0000 -0.0000
vn 0.0341 -0.0000 -0.9994
vn -0.0341 -0.0000 0.9994
vn -0.9979 -0.0000 0.0641
vt 0.833308 0.913362
vt 0.833308 0.911397
vt 0.837907 0.911397
vt 0.837907 0.913362
vt 0.385956 0.914332
vt 0.385956 0.912368
vt 0.390556 0.912368
vt 0.390556 0.914332
vt 0.772857 0.915166
vt 0.772857 0.913202
vt 0.777457 0.913202
vt 0.777457 0.915166
vt 0.602192 0.912537
vt 0.602192 0.910573
vt 0.606791 0.910573
vt 0.606791 0.912537
vt 0.971587 0.782741
vt 0.971587 0.788027
vt 0.966300 0.788027
vt 0.966300 0.782741
vt 0.602192 0.926286
vt 0.602192 0.924321
vt 0.606791 0.924321
vt 0.606791 0.926286
vt 0.834548 0.921807
vt 0.834548 0.921092
vt 0.837757 0.921092
vt 0.837757 0.921807
vt 0.834268 0.920496
vt 0.833308 0.919254
vt 0.837907 0.919254
vt 0.837873 0.920496
vt 0.834268 0.918011
vt 0.837873 0.918011
vt 0.834548 0.917415
vt 0.834548 0.916700
vt 0.837757 0.916700
vt 0.837757 0.917415
vt 0.834320 0.916015
vt 0.837871 0.916015
vt 0.386969 0.916986
vt 0.390520 0.916986
vt 0.772857 0.928914
vt 0.772857 0.926950
vt 0.777457 0.926950
vt 0.777457 0.928914
vt 0.773870 0.924296
vt 0.777421 0.924296
vt 0.774098 0.923611
vt 0.774098 0.922897
vt 0.777307 0.922897
vt 0.777307 0.923611
vt 0.773817 0.922301
vt 0.772857 0.921058
vt 0.777457 0.921058
vt 0.777423 0.922301
vt 0.773817 0.919816
vt 0.777423 0.919816
vt 0.774098 0.919220
vt 0.774098 0.918505
vt 0.777307 0.918505
vt 0.777307 0.919220
vt 0.385956 0.928080
vt 0.385956 0.926116
vt 0.390556 0.926116
vt 0.390556 0.928080
vt 0.773870 0.917820
vt 0.777421 0.917820
vt 0.386969 0.923462
vt 0.390520 0.923462
vt 0.387197 0.922777
vt 0.387197 0.922063
vt 0.390406 0.922063
vt 0.390406 0.922777
vt 0.386917 0.921467
vt 0.385956 0.920224
vt 0.390556 0.920224
vt 0.390521 0.921467
vt 0.386917 0.918982
vt 0.390521 0.918982
vt 0.387197 0.918386
vt 0.387197 0.917671
vt 0.390406 0.917671
vt 0.390406 0.918386
vt 0.833308 0.927110
vt 0.833308 0.925146
vt 0.837907 0.925146
vt 0.837907 0.927110
vt 0.603204 0.921668
vt 0.606755 0.921668
vt 0.603433 0.920982
vt 0.603433 0.920268
vt 0.606641 0.920268
vt 0.606641 0.920983
vt 0.603152 0.919672
vt 0.602192 0.918429
vt 0.606791 0.918429
vt 0.606757 0.919672
vt 0.603152 0.917187
vt 0.606757 0.917187
vt 0.603433 0.916591
vt 0.603433 0.915876
vt 0.606641 0.915876
vt 0.606641 0.916591
vt 0.603204 0.915191
vt 0.606755 0.915191
vt 0.606853 0.920982
vt 0.606853 0.920268
vt 0.606853 0.916591
vt 0.606853 0.915876
vt 0.837969 0.916700
vt 0.837969 0.917415
vt 0.837969 0.921092
vt 0.837969 0.921807
vt 0.837871 0.922492
vt 0.390618 0.917671
vt 0.390618 0.918386
vt 0.390618 0.922063
vt 0.390618 0.922777
vt 0.777519 0.918505
vt 0.777519 0.919220
vt 0.777519 0.922897
vt 0.777519 0.923611
vt 0.834320 0.922492
vt 0.584150 0.912457
vt 0.584150 0.910493
vt 0.588749 0.910493
vt 0.588749 0.912457
vt 0.555092 0.912432
vt 0.555092 0.910468
vt 0.559691 0.910468
vt 0.559691 0.912432
vt 0.819660 0.913361
vt 0.819660 0.911397
vt 0.824259 0.911397
vt 0.824259 0.913361
vt 0.896271 0.911695
vt 0.896271 0.909731
vt 0.900870 0.909731
vt 0.900870 0.911695
vt 0.966300 0.768405
vt 0.971587 0.768405
vt 0.971587 0.773692
vt 0.966300 0.773692
vt 0.896271 0.925443
vt 0.896271 0.923479
vt 0.900870 0.923479
vt 0.900870 0.925443
vt 0.584299 0.920902
vt 0.584299 0.920188
vt 0.587508 0.920188
vt 0.587508 0.920902
vt 0.584184 0.919592
vt 0.584150 0.918349
vt 0.588749 0.918349
vt 0.587789 0.919592
vt 0.584184 0.917106
vt 0.587789 0.917107
vt 0.584299 0.916511
vt 0.584299 0.915796
vt 0.587508 0.915796
vt 0.587508 0.916511
vt 0.584185 0.915111
vt 0.587736 0.915111
vt 0.555128 0.915086
vt 0.558679 0.915086
vt 0.819660 0.927110
vt 0.819660 0.925146
vt 0.824259 0.925146
vt 0.824259 0.927110
vt 0.819696 0.922492
vt 0.823247 0.922492
vt 0.819810 0.921807
vt 0.819810 0.921092
vt 0.823018 0.921092
vt 0.823018 0.921807
vt 0.819694 0.920496
vt 0.819660 0.919254
vt 0.824259 0.919254
vt 0.823299 0.920496
vt 0.819694 0.918011
vt 0.823299 0.918011
vt 0.819810 0.917415
vt 0.819810 0.916701
vt 0.823018 0.916700
vt 0.823018 0.917415
vt 0.555092 0.926181
vt 0.555092 0.924217
vt 0.559691 0.924217
vt 0.559691 0.926181
vt 0.819696 0.916015
vt 0.823247 0.916015
vt 0.555128 0.921563
vt 0.558679 0.921563
vt 0.555242 0.920878
vt 0.555242 0.920163
vt 0.558451 0.920163
vt 0.558451 0.920878
vt 0.555126 0.919567
vt 0.555092 0.918324
vt 0.559691 0.918324
vt 0.558731 0.919567
vt 0.555126 0.917082
vt 0.558731 0.917082
vt 0.555242 0.916486
vt 0.555242 0.915771
vt 0.558451 0.915771
vt 0.558451 0.916486
vt 0.584150 0.926205
vt 0.584150 0.924241
vt 0.588749 0.924241
vt 0.588749 0.926205
vt 0.896307 0.920825
vt 0.899858 0.920825
vt 0.896421 0.920140
vt 0.896421 0.919425
vt 0.899629 0.919425
vt 0.899629 0.920140
vt 0.896305 0.918830
vt 0.896271 0.917587
vt 0.900870 0.917587
vt 0.899910 0.918830
vt 0.896305 0.916344
vt 0.899910 0.916344
vt 0.896421 0.915748
vt 0.896421 0.915034
vt 0.899629 0.915034
vt 0.899629 0.915748
vt 0.896307 0.914349
vt 0.899858 0.914349
vt 0.584185 0.921587
vt 0.584088 0.920902
vt 0.584088 0.920188
vt 0.584088 0.916511
vt 0.584088 0.915796
vt 0.555030 0.915771
vt 0.555030 0.916486
vt 0.555030 0.920163
vt 0.555030 0.920878
vt 0.819598 0.916701
vt 0.819598 0.917415
vt 0.819598 0.921092
vt 0.819598 0.921807
vt 0.896209 0.915034
vt 0.896209 0.915748
vt 0.896209 0.919425
vt 0.896209 0.920140
vt 0.587736 0.921587
vt 0.656843 0.631704
vt 0.648273 0.630860
vt 0.648273 0.580467
vt 0.656843 0.579623
vt 0.648273 0.570575
vt 0.648273 0.518495
vt 0.656843 0.519339
vt 0.656843 0.569731
vt 0.678344 0.230293
vt 0.678344 0.185715
vt 0.679796 0.185715
vt 0.679796 0.230293
vt 0.177195 0.375355
vt 0.177195 0.332293
vt 0.178644 0.332293
vt 0.178644 0.375355
vt 0.177195 0.324768
vt 0.178644 0.324768
s 1
usemtl uv_checker_material_uv_grid_2048x2048
f 11/1/1 2/2/1 4/3/1 12/4/1
f 12/5/2 4/6/2 8/7/2 15/8/2
f 15/9/3 8/10/3 6/11/3 18/12/3
f 18/13/4 6/14/4 2/15/4 11/16/4
f 8/17/5 4/18/5 2/19/5 6/20/5
f 5/21/4 20/22/4 9/23/4 1/24/4
f 21/25/1 24/26/1 39/27/1 42/28/1
f 26/29/6 10/30/6 13/31/6 40/32/6
f 10/30/7 28/33/7 38/34/7 13/31/7
f 27/35/1 30/36/1 33/37/1 36/38/1
f 32/39/8 11/1/8 12/4/8 34/40/8
f 34/41/9 12/5/9 15/8/9 46/42/9
f 7/43/3 17/44/3 20/45/3 5/46/3
f 17/44/10 56/47/10 68/48/10 20/45/10
f 55/49/3 53/50/3 63/51/3 66/52/3
f 52/53/11 16/54/11 19/55/11 64/56/11
f 16/54/12 50/57/12 62/58/12 19/55/12
f 49/59/3 47/60/3 57/61/3 60/62/3
f 3/63/2 14/64/2 17/65/2 7/66/2
f 46/67/13 15/9/13 18/12/13 58/68/13
f 14/64/14 44/69/14 56/70/14 17/65/14
f 43/71/15 41/72/15 51/73/15 54/74/15
f 40/75/16 13/76/16 16/77/16 52/78/16
f 13/76/17 38/79/17 50/80/17 16/77/17
f 37/81/15 35/82/15 45/83/15 48/84/15
f 1/85/1 9/86/1 14/87/1 3/88/1
f 20/22/18 68/89/18 22/90/18 9/23/18
f 67/91/4 65/92/4 25/93/4 23/94/4
f 64/95/19 19/96/19 10/97/19 26/98/19
f 19/96/20 62/99/20 28/100/20 10/97/20
f 61/101/4 59/102/4 31/103/4 29/104/4
f 58/105/21 18/13/21 11/16/21 32/106/21
f 21/107/22 22/90/22 23/94/22
f 24/108/23 25/93/23 26/98/23
f 27/109/24 28/100/24 29/104/24
f 30/110/25 31/103/25 32/106/25
f 33/37/26 34/40/26 35/111/26
f 36/38/27 37/112/27 38/34/27
f 39/27/28 40/32/28 41/113/28
f 42/28/29 43/114/29 44/115/29
f 45/83/30 46/42/30 47/116/30
f 48/84/31 49/117/31 50/80/31
f 51/73/32 52/78/32 53/118/32
f 54/74/33 55/119/33 56/70/33
f 57/61/34 58/68/34 59/120/34
f 60/62/35 61/121/35 62/58/35
f 63/51/36 64/56/36 65/122/36
f 66/52/37 67/123/37 68/48/37
f 23/94/38 25/93/38 24/108/38 21/107/38
f 29/104/39 31/103/39 30/110/39 27/109/39
f 35/111/40 37/112/40 36/38/40 33/37/40
f 41/113/40 43/114/40 42/28/40 39/27/40
f 47/116/41 49/117/41 48/84/41 45/83/41
f 53/118/42 55/119/42 54/74/42 51/73/42
f 59/120/43 61/121/43 60/62/43 57/61/43
f 65/122/43 67/123/43 66/52/43 63/51/43
f 67/91/44 23/94/44 22/90/44 68/89/44
f 64/95/45 26/98/45 25/93/45 65/92/45
f 61/101/46 29/104/46 28/100/46 62/99/46
f 58/105/47 32/106/47 31/103/47 59/102/47
f 55/49/48 66/52/48 68/48/48 56/47/48
f 52/53/49 64/56/49 63/51/49 53/50/49
f 49/59/50 60/62/50 62/58/50 50/57/50
f 46/67/51 58/68/51 57/61/51 47/60/51
f 43/71/52 54/74/52 56/70/52 44/69/52
f 40/75/53 52/78/53 51/73/53 41/72/53
f 37/81/54 48/84/54 50/80/54 38/79/54
f 34/41/55 46/42/55 45/83/55 35/82/55
f 21/25/56 42/28/56 44/115/56 22/124/56
f 26/29/57 40/32/57 39/27/57 24/26/57
f 27/35/58 36/38/58 38/34/58 28/33/58
f 32/39/59 34/40/59 33/37/59 30/36/59
f 9/86/60 22/124/60 44/115/60 14/87/60
f 79/125/61 70/126/61 72/127/61 80/128/61
f 80/129/62 72/130/62 76/131/62 83/132/62
f 83/133/63 76/134/63 74/135/63 86/136/63
f 86/137/64 74/138/64 70/139/64 79/140/64
f 76/141/5 72/142/5 70/143/5 74/144/5
f 73/145/64 88/146/64 77/147/64 69/148/64
f 89/149/61 92/150/61 107/151/61 110/152/61
f 94/153/65 78/154/65 81/155/65 108/156/65
f 78/154/66 96/157/66 106/158/66 81/155/66
f 95/159/61 98/160/61 101/161/61 104/162/61
f 100/163/67 79/125/67 80/128/67 102/164/67
f 102/165/68 80/129/68 83/132/68 114/166/68
f 75/167/63 85/168/63 88/169/63 73/170/63
f 85/168/69 124/171/69 136/172/69 88/169/69
f 123/173/63 121/174/63 131/175/63 134/176/63
f 120/177/70 84/178/70 87/179/70 132/180/70
f 84/178/71 118/181/71 130/182/71 87/179/71
f 117/183/63 115/184/63 125/185/63 128/186/63
f 71/187/62 82/188/62 85/189/62 75/190/62
f 114/191/72 83/133/72 86/136/72 126/192/72
f 82/188/73 112/193/73 124/194/73 85/189/73
f 111/195/62 109/196/62 119/197/62 122/198/62
f 108/199/74 81/200/74 84/201/74 120/202/74
f 81/200/75 106/203/75 118/204/75 84/201/75
f 105/205/62 103/206/62 113/207/62 116/208/62
f 69/209/61 77/210/61 82/211/61 71/212/61
f 88/146/76 136/213/76 90/214/76 77/147/76
f 135/215/64 133/216/64 93/217/64 91/218/64
f 132/219/77 87/220/77 78/221/77 94/222/77
f 87/220/78 130/223/78 96/224/78 78/221/78
f 129/225/64 127/226/64 99/227/64 97/228/64
f 126/229/79 86/137/79 79/140/79 100/230/79
f 89/149/80 90/231/80 91/232/80
f 92/150/81 93/233/81 94/153/81
f 95/159/82 96/157/82 97/234/82
f 98/160/83 99/235/83 100/163/83
f 101/236/84 102/165/84 103/206/84
f 104/237/85 105/205/85 106/203/85
f 107/238/86 108/199/86 109/196/86
f 110/239/87 111/195/87 112/193/87
f 113/240/88 114/191/88 115/184/88
f 116/241/89 117/183/89 118/181/89
f 119/242/90 120/177/90 121/174/90
f 122/243/91 123/173/91 124/171/91
f 125/244/92 126/229/92 127/226/92
f 128/245/93 129/225/93 130/223/93
f 131/246/94 132/219/94 133/216/94
f 134/247/95 135/215/95 136/213/95
f 91/232/96 93/233/96 92/150/96 89/149/96
f 97/234/96 99/235/96 98/160/96 95/159/96
f 103/206/97 105/205/97 104/237/97 101/236/97
f 109/196/97 111/195/97 110/239/97 107/238/97
f 115/184/98 117/183/98 116/241/98 113/240/98
f 121/174/98 123/173/98 122/243/98 119/242/98
f 127/226/99 129/225/99 128/245/99 125/244/99
f 133/216/99 135/215/99 134/247/99 131/246/99
f 135/215/100 91/218/100 90/214/100 136/213/100
f 132/219/101 94/222/101 93/217/101 133/216/101
f 129/225/102 97/228/102 96/224/102 130/223/102
f 126/229/103 100/230/103 99/227/103 127/226/103
f 123/173/104 134/176/104 136/172/104 124/171/104
f 120/177/105 132/180/105 131/175/105 121/174/105
f 117/183/106 128/186/106 130/182/106 118/181/106
f 114/191/107 126/192/107 125/185/107 115/184/107
f 111/195/108 122/198/108 124/194/108 112/193/108
f 108/199/109 120/202/109 119/197/109 109/196/109
f 105/205/110 116/208/110 118/204/110 106/203/110
f 102/165/111 114/166/111 113/207/111 103/206/111
f 89/149/112 110/152/112 112/248/112 90/231/112
f 94/153/113 108/156/113 107/151/113 92/150/113
f 95/159/114 104/162/114 106/158/114 96/157/114
f 100/163/115 102/164/115 101/161/115 98/160/115
f 77/210/116 90/231/116 112/248/116 82/211/116
f 138/249/5 140/250/5 139/251/5 137/252/5
f 142/253/117 141/254/117 143/255/117 144/256/117
f 138/257/118 137/258/118 141/259/118 142/260/118
f 139/261/119 140/262/119 144/263/119 143/264/119
f 140/262/120 138/265/120 142/266/120 144/263/120
